<mxfile host="app.diagrams.net" agent="Mozilla/5.0 (Windows NT 10.0; Win64; x64; rv:138.0) Gecko/20100101 Firefox/138.0" version="26.2.14">
  <diagram name="Page-1" id="diQkNtjmiE2_jKHFYiwU">
    <mxGraphModel grid="1" page="1" gridSize="10" guides="1" tooltips="1" connect="1" arrows="1" fold="1" pageScale="1" pageWidth="1169" pageHeight="827" math="0" shadow="0">
      <root>
        <mxCell id="0" />
        <mxCell id="1" parent="0" />
        <mxCell id="vmAAlmW888rtJV2ebhX8-1" value="" style="shape=image;verticalLabelPosition=bottom;labelBackgroundColor=default;verticalAlign=top;aspect=fixed;imageAspect=0;image=data:image/png,iVBORw0KGgoAAAANSUhEUgAAAqoAAAC3CAYAAADaUnwGAAAgAElEQVR4XuzdA5QlyRYu4BjP3LF9x7Zt27Zt27Zt27Zt2zbuHc+8+8V7US8n5/hUdZ/qjr1Wr0adzIz4Y+PfyNMD/Oc///krZMkIZAQyAhmBjEBGICOQEcgIdBgCAyCq//rXvzpsWXk5GYGMQEYgI5ARyAhkBDIC/TMC//3vf0Mmqv2zBuS9ZwQyAhmBjEBGICOQEehQBDJR7dCDycvKCGQEMgIZgYxARiAj0L8jkIlq/64Bef8ZgYxARiAjkBHICGQEOhSBTFQ79GDysjICGYGMQEYgI5ARyAj07whkotq/a0Def0YgI5ARyAhkBDICGYEORSAT1Q49mLysjEBGICOQEcgIZAQyAv07Apmo9u8akPefEcgIZAQyAhmBjEBGoEMRyES1Qw8mLysjkBHICGQEMgIZgYxA/45AJqr9uwb0wv1fdtllYdVVVw3bbLNNOPbYY3vFDj799NMw+uijh+mmmy48/fTTfWXN++yzT9h///3DaaedFjbeeOM+soYFFlgg3H333eHVV18Nk0wySR95ZqWH3HXXXWHBBRcMa665Zrjgggv62jrygzMCzSDQKfbTzJr7x88OMMAAYeyxxw7vv/9+S9vvG765pYX2pYv6OlH94YcfwoQTThi++eab8Nprr4XxxhuvC4r55psv3HvvveGqq64Kyy+/fF+CqO89Fiajjjpq+O233zoywF5xxRXhxBNPDG+++Wb4/fffw0ILLRTmn3/+sPrqq4fBBx+8x4Drm0T1uuuuC8suu2zVvd15551BcClL3yCqW221VXjppZciUSR+f+ihh8Jiiy0WZpxxxh47n+KNGw20M888c3jiiSfCmGOOGT744IPA8RelvJcvv/wy2sbtt99eEe/y5t5+++1w0UUXhcknnzyssMIKfWTvrTzk8ssvD6usskq0+YEHHriVW/ztmm+//TYMP/zw/7gPnzv77LOH3XbbLUw66aRtP6dv3aDS/oYeeugw1VRTRT+0+eab/0OX+tZaW3luLfv57rvvwnDDDRd/iRX9k3TauTdLVPuWb/7oo4/CTjvtFJ566qnw4YcfhnHHHTfMNddcYYcddggTTTRRH1WhZnxdXyeqkDn99NPDJptsElZbbbVw8cUXR7CuvvrqGFDmnnvucN999/VRADvlYaeeemrYbLPNwsgjjxz+99/chs8++ywMNdRQHbG8PfbYIxx88MFxLWONNVbMJpGi77//Pp4jUlAmG9218E4gqkiSYFiWQw89NMwwwwz/+Pe+QVQlfX4lotpd+Ddzn0aIqmrrZJNNFvX8iy++iOuVpBalvJezzjorbLjhhqFaYtDMGjvps+uss044//zzu52oIr3zzjtv3Kqkkq3CeoIJJggvvPBCGGKIIToJhobXkghLcX/0SRAmEuktttii4ft12gczUa18Ip127s0S1b7hm995550w00wzha+++irau+7eJ598Evy7ZOe2224LCgZ9SprxdR1BVP/6668w/fTTh2effTY8+eSTYdppp42VD5U6fwfor7/+Gvbee+9wzTXXBEEfoEceeWSYZpppIq4qr9rAjz76aBhyyCHDcsstF9uc//rXv8JNN90UllxyybDzzjuHr7/+Olx66aVBJbfThZN6/PHHw3777RczHuRPlSDJH3/8Efd0ySWXhEEHHTTssssuEZ877rgjfP755zHwI7euveeee2KAWnTRRSNOlaosjeLx3HPPxTOCrectvPDC8VJVIC15zz766KOjUZDHHnss7L777rHlbU1rrLFG2HPPPcNAAw0U13z44YeH66+/Pp71eeedF0YbbbRwxBFHxEyPPPPMM2HLLbcMzz//fKwELrPMMmG77bb7W+v/7LPPDqecckpsMasQ7brrrl2VM5WjRx55JNxyyy1h2223DQxEJakVSRVVVVV7ryacwaabbhrPAon3PPtOrX/7XHfddeP5HXbYYfE29njSSSeFK6+8Mq6dzh944IFB5ZpDgQfcZplllpo6z6jhXJRXXnkl6km59c82DjnkkPDiiy+GEUYYIcwzzzxxPaOMMkr48ccfg+rUHHPMEc9Te0omvtJKK4Vjjjkm6pwzZ5fIpWewS2tMpKgRorrvvvtGHXd+EjO4+TNROS3vZe21145kLklq59fyAeXWf/IJ9GTKKaeM+1OVch6eT5Le2Ndee+0V9RPp2XrrraM+X3jhhVEfzzjjjDjW0a6u84F0PUl3jGikgD7ssMMGf07CF0w88cQxSMHNudfCz3XOHl5+l6ixdX8fbLDB6u69FVtr5JpK++MXVY3oKH/H7kkrPuLmm2+OusEPG12hzwcccEAYZJBB4j37pv2UK6qN2Ks1iyPHHXdc9JWSbTqd4grs4GY8RhdinHHGCSuuuGLUd/ZetBs/O+qoo2JH9Pjjj48+io8Qt9lLGi+qF7sbOefyZ5o591pnxFfiC/wy/8v38d32DCO6LSGWGN94441hiSWWiEuZeuqpY4In2RtppJFiUabY+q9mS4365nrn0OhZF3HDia699toYh/gW+yap8EMPJHb19Prdd9+NBZDZZpstPPzww3+7RxrHqxfXm/V1HUFU7fT++++PzlIlRZCmNKqsqopk++23jwaEZKiyCm6cLaPgNAQKh8tgkB7Bfscdd4yER9VFWxr5dTgIFELQyWLWhSNQnUTItUQpmkpzklRx9XekB9FnOMr7CLksCalRPUEeCKKyyCKLRIVtVTgn2GpfwLuWSCq0FJANa0BoOEp7QqCRHI5fRY3T9Hm6wPkZBXGmAirjQIgFSKRbxSQZhb3ABpHbaKONos4wIMHFWacREs5lzjnnjCQK2WpFGiWqyJN92pPnIUovv/xyU0QVxrCGHT1AWAUniQLdqKbzSB+s2YuKGZtBAE844YS/EVVnkcYU2Jx7sxWYSfhgLzh5DtzpkiTP5wT99dZbL9oXcmd9ZkD9WWB6/fXXY8LRCFGVWHC8dB5eyKnzZdccVHkv9In+IEzWIHgsvfTSNX1Amagmn+DZCDrHi8j/+eef4Y033oj6l/Rm1llnDVNMMUU8z59//jme5xhjjBH1i//hm5xTu7qus4QQIMz8m321O6JRjag6W8mmBAUWfGotH4qEIGoS/KWWWiomKLfeemtXUlFv763YWiPXVNsf+5dg6W5IMFrxEXSCzkuM+Vd2x19JOnWT+rb9lImqM6lnr2Kj/Qw44IBh/fXXj9iIG+zayEmalVRxQ2gk+OKHwgDCXrSb8ccfP8YbIzt0ie3wsRI462DDfFet2K3Y0Yo0eu71zsia+RnrEBv4Mf5TvEFa+bNmiapzaNc31zuHRs66jCvuw5+mIlbx5xLWNHZZDzN+uh5RrRfXm/V1HUNUgcZQzC2o4hABQ4AU+FQEZC7m18iZZ54ZSYngYi5ShoDMMb733nsvzl6oiJjJS0FK4HzrrbeiUna6qDLKSlTeVJAYkcCoQpqqoYiBvcn8VHkEe5Wwn376KToQQUiwLb5A4l6y5Y8//rirCtQsFjKvk08+ORJCyQSxNq2DJMYBkAgklNJSTOdFnI0zlpEmg/Qzn+E4nLNgzSDoALKTKj6ul62rNCaiKgnhQNMLO0iSoGo+TUJCP5DbRI6b3W/x87VmVJEsVV/6ytHLxjkF4xoqq4h2oxVVxGuYYYaJxEhFD6EyFnPOOedEHJGlWjqPQCF0zj+1/ssD+2ZVkQ1BN1WYkSNVJHjCPFWOOG7kGPkVeFRLPB95hjsHj9xZG9tUxVh88cXrElWEWGYuGKhMWofxCTjDgFTaC+LANlLrH86N+IBkC8knwFUCoSJiDl6VnH34XNIbPklig+zTeaReIpwcesK4XV1XkRH8BY3unlEttsZhiljyDxJEVVykpxZ+aW/ICyKiSJDeG3BW7LGWnbdjc7WurURY+HgVVWe5wQYbRH1sxUekQkDRbyB1fAv77tv2UyaqzqSevSYcUrUeCdVlQsgRNH5Z/HjggQdizPFncdXomeeJp+IOQoq4K4rw9UTHjH9LySnbVDyoFbtV5VuRRs+90TNiH2IiYk1v6LbukG5gs0S1ni+q55vpbL1zsN56Z13ENZ2TBNufa0k9zBQ/6hHVenG9WV/XUUQVMeEEBGfBClErBqpK4Gpbaj8hTgIdooDskEQcUlAqVyRbMZA+dY1KigBC6UccccTYHodHsR0IK6SM80wjECo/Ai+iKnum9JWEw0HkW5FEVGEueBN/Ls6CpeCdCEX5OTJu56xypMqr2qeKTpKjs3/nqSKYiJGfI2wCZiKqKbiXn4EoIUyJcKgeVJofbQaDRFQrzagyPpXGlCghQUgmSY6iUaLqPBFNmTkHWklq6Xw9ZwhPxFJQh7OKCGFLKglaQJIQzlDyI0EiiZxpjSGpnqMK6N+1zJKkCk29imqqtugUsM9EXIvJVSNENelgPR9QJqorr7xybH2RNIKQEr+kN3SQLzEyo7JEXyVLzkUQT2farq47g54iqpX0RyJ30EEHxc5LPfzS3oxkpNGI4j3r7b2n5tWrvSxmbUgHoiGotuIj2IZzR9YQB5Vk+iKBg1nftp9qRLWWvSYcEFQdxqJo9SMhfBvdVnUlKtMq1OxAPEJUFZXYOIGFSrsqPaFX9EQyl/xYJf1Lsbuic6vzj42ee6NnxI7TXLNEEU4Jx2aJaj1bqueb4VvvHCSY9XxzEUIdESS1EaJaDzPFjEaJarW43qyv6yiiCtg0u1AMnulgHZ7suCjIgc+qeMgWBU1tb1WPMlHtLV9Nw4mYm6skAr9MlSSiqjKZPo8caZkXiarsUJu+KLBBgFuRVFUrzrSk+6SZwjJRRQI4+KLItgX98txkyuiKRFXmrXpOVLxUhstEFdkpzt4KLohpIhypMtnKntM1jbT+E1EVKDl2kkY5ykQ1tdR8JlUjiw5etSJ1EYrr9plaOl/PGRaJqvunqghyqrJdJKrFNTz44IOxSpKIqv1IlM4999xYcTUKoiLRCFEV2FxTKcNXhabDvj2iEaJaD49y67/S11UJnPxHmagmvUnJWKpAJ10vE9VWdb1Z592IHleqPKWXV1PFyH3q4ZeIaLW52fTzans3j94TUumlGrqT2rgCM0kErVkfwZe6xpgJnfG8VFFPAb1v2U81olrLXhMOlXxhIqpIkGJHEn/XNSkS1WIslUxLUnWSiAotGyr6sWqx27+3Io2ee6NnVCSqaQazTFRTMm29KfZWmlGtZ0v1fHMiqrXOIRHVWmddxlVCQWfKrX9+WNcIT9AFrIdZIqpprMZzvDOgoJRicqWv2yrG9WZ9Xa8gqtpg2qDK3VpWZi0EN21hWaH5MBXHxN4NMiNKyBsS19u+QzG1tjnEVCmlDMgAZ5IcY2r9p5estMsZlxZQsfVfJLfpbV/VVFXNVoQhw52CIy7ppSmVbFU2pLLcDhXAKC/RVmIQAmU9hZZ0WL/nWTtB7lS3yq1/54yUalOZmxKkzLf2aaKaWv/wkKVzgulbLBKpSYS3eDaq6AIiR1ds/dN5VQ73UKlQzaD7tXQ+OcPit2ZUa/0jlukrtzgQLb1i67+aMzSGIBkoVnBSa1FSQQ9qVVTTOIR9pza/82W/aZbZSx6V9pKIkXETIxVpeL9RH9ATRDW1x1vV9aLz1m1ILym1YqPpmmovnfAr7IlPEWDq4Zf2pusBYy/ASpRU0uiyWWWt/2p7b2cPta6tNqtYvibpZTM+QiUVQWOzRGKikPLLL7/EDkMKvH3LflohqgkHXQTVYVVjFXLExwyqOCt+8Dlmt5EavkesKLb+GyWqyY9Vi918RyvS6Lk3ekbF1n/yzSmR8y4FbJJuO3sFMrykElGtZ0v1fLPxxXrnkFr/zRBVxSoFCPau86diLlZarxE5fpQ/rYcZgqoglHRCMSF1xlohqo34ul5BVIvkxCC4apqZKFm6F2+wecYGYCSG0+RgKLN5O46lN33ZtywTIVWFYxBJEtFIM1OUS+CgNDBBYA2/K/MzII4GiTQ7ZCgccdeWMU+oqtKOpDYpJVW9IMiTaiJRWWMYEgpk0VmpxPq5oFce3i9WaoqZl1EGVQCED+nxYoszVW1NRpFIoP1ZFyeMaMFC5tsTRLXa11OpNKpKImnWocLt3xBQbx8nogoX+0JqvSyEkBtTgE966z8ZvyAiaUEMOUkkXEuzls6rmMugzdJxtKq13lwtVq9TGx9G1gszIyFafZIJiYj2Ui1n6Gf2IlkS1DzD7KO10VcjGtW+8D+11BJZSvqYSCRb9xJMCsjFvXC47FzgXWutteJLAs34gJ4gqu3qOqJqXtf4A2zsS6LRjlQL6HTRaIxkjt3qUtTCj67SE/pKV5AZIzip01Fv7+3soTuIais+IhEONqOLYI8w4lPpdN+2n1aIanqpTLcH2fRuAZsXS8SGFGOQFskM3JBZWBjHq2Q3tSqq/FYqLFSK3a1+LVqjRLXRM9JdVLwxbsWX8bMKYHyw4gtSL87quvDPKtL0oRJRFcva9c31ziHNIzdDVO3JmfpdHLIfMVJC5s/iD/9TDzNjPO6jwu5MxWXJKz/SDFFtxtf1GqKKdRv29uX/MhlkywtEXpCS1SMjCBlnasaOESNngrx2Xm8hqultVY4RCS8KAoCApEwPDt4MFzAojkosp5BejpCVMSbGpkplrsQLTjK2NIjdTgBh0IxShuh8ZFp+Ic3F+SeB10sy1oUEcYjpaz7qVVQFb5g4a1m+wGiEQKZeHD2QIWrNqvb6KjI4pGp0TxDVarilr5uyVvPBCKWvyEGgOcE0juJ6a5Z0cHqyXAmKqlSqdiAFgiTHyAk4Pw4Bka+n8wKKhEALjp4gnmynPGaBsJhT1HkQvNiJv3PcjThD5Bkx1+VAGiUoxgq8pHXDDTfEqm8lompNqin0BsFNL1DCBUFGoHQI0suD5b2oNiLf9kWfVdib8QE9QVStvV1dV83xIpA5OS/zVJsxb9RuawV0ZERVm236VQs/eJnxRlgkXQKHyr4Kf/pu51p7b3S9zX6uUcKS7K0ZH2GPZrb5uNTW5peNn0m+Sd+yH89uhai6jt9mL4gGu6Vv6WVKtqd66IU5OujFV8mmGCJmtEJUa8XuZs87fb6Zc2/kjOyTj+G76LNODt+scpm+7gwmSJ3RH6RO9TF1u4pfT9UdvrneOTTimythy9fSabaqsKUQpvvpfItjGLUwS34O90B0dcTokA5L6rg0Eteb8XUdR1RbVdz+8TrOEzGTDSEZlBdxV5Kv9gJO/4hT3nNGICOQEcgIZATKCFQifBmlzkMgE9XOO5OGV5TeQlZhk9GowKrcFV/Qafhm+YMZgYxARiAjkBHojxDIRLV3HHYmqr3jnCqu0uytdoVWjZYE0RI389fO/zzViyHJS88IZAQyAhmBjEBDCGSi2hBMff1Dmaj29SPIC8gIZAQyAhmBjEBGICOQEaiEQCaqWS8yAhmBjEBGICOQEcgIZAQ6EoFMVDvyWPKiMgIZgYxARiAjkBHICGQEMlHNOpARyAhkBDICGYGMQEYgI9CRCGSi2pHHkheVEcgIZAQyAhmBjEBGICOQiWrWgYxARiAjkBHICGQEMgIZgY5EIBPVjjyWvKiMQEYgI5ARyAhkBDICGYFIVP8Hw18ZioxARiAjkBHICGQEMgIZgYxApyEwwH/+859MVDvtVPJ6MgIZgYxARiAjkBHICGQEQiaqWQkyAhmBjEBGICOQEcgIZAQ6EoFMVDvyWPKiMgIZgYxARiAjkBHICGQEMlHNOpARyAhkBDICGYGMQEYgI9CRCGSi2pHHkheVEcgIZAQyAhmBjEBGICOQiWrWgYxARiAjkBHICGQEMgIZgY5EIBPVjjyWvKiMQEYgI5ARyAhkBDICGYFMVLMOZAQyAhmBjEBGICOQEcgIdCQCmah25LHkRWUEMgIZgYxARiAjkBHICGSimnWgn0Dgu+++C2OMMUZ44oknwuSTT95P7Km8iZ9//jmMOOKI4YEHHgjTTz/9P/Z44403hq233jq8/fbbdfe/7777hldffTVceumldT/bzgcWXnjhsOSSS8Z1dbfsvvvu4ZNPPgnnnHNOQ7eeYoopwn777RdWXHHFsNtuu8Vrzz333LrXzjPPPGGNNdYIG2+8cd3P9tYP3HnnnWHttdcOH3/8ccUtNKNbnYbB8ccfH4Ybbri4v/5Jnn766XDqqaeG008/vX/adt5rP4hAQ0T1jz/+CALbHXfcET744IMw++yzh1NOOSWMNNJIbUHy0UcfxcDhvkMOOWRYdNFFw5577hmdCnn++efDtttuG15++eUw5phjxmC3zjrrdD3zkksuCUcffXR4//33w2STTRaOOuqoMMMMM3T9/MwzzwznnXdeeOutt2Jg33HHHcO8887b1pr/+uuvIEBef/314dtvv/0HFv5t0003DY888kgYfPDBw9JLLx0OPfTQMNBAA1V8rjVyoIMOOmhL60LQNtpoo3DTTTcFfx544IHjfQSeZZZZpuI933vvvbbPrqXFli668sor43nusMMOYf/99//HLWebbbaoA8V9VXtupxHVWWaZJXz55Zfhqaee6tJnaxc8FllkkfDFF180DWE9oup5b7zxRoBbPenfiSqf8MsvvzSU1PQmosoOxhlnnHDRRReFJZZYoksNzj///LDZZpuFF198MYw33nhd/77LLruEZ599Nuy00041iWpZt9r1W/X0szt+fvvtt8eY8OSTT0a/OPPMM4etttoqSJ74wEoJrbhWjdDWijedFBdee+216E/vu+++8MMPP4TpppsuLL/88l3JIh902GGHhYceeij6prXWWivQg2py9dVXh9NOOy0899xzUbf4jsUWWyx+/LfffgvHHXdcuPbaa6Pv8ayTTz45jD/++PHnn332Wddavv/++7DggguGE088MfzrX//qjiPO9+hGBOqdpUfV41RXXHFFOOKII2LCO9dcc4Vdd901TDPNNHGVzepdcWsNEVUPppzI4LjjjhtuueWWMP/884cbbrihZZgY9kwzzRSdBXL61VdfxSrHhBNOGMH473//G6accsqw4YYbhs033zw8/vjjYfXVVw+MZu655w6PPfZYdMSqKf7uGgbzwgsvhGGHHTYS1BNOOCFw0P/+97/DXXfdFdZdd91IICeddNKW133MMcfEKswFF1wQRh999Eh+v/766y4sVGuQ0mOPPTb+OyK20korVXQEAuVoo40Wyf9QQw3V9JpUxDjVGWecMe63HqE766yzwsUXXxyx6ARBVDlIQcReBhhggK5lIahIPkJXb18u6kSi+vnnn4cVVlghHHnkkV376kmi2syZ9u9EtRmsehNRtS8VbD6uqHfrr79+TF4POOCAvyX7Eio6KpGvVVEt4tWu32oG+1Y/y5/Ym4KCZHGQQQaJMUaFUeHjww8/DHPMMUdAnop+p9rz6sWbTokLf/75ZyQGzlvRRlyQGEtSLrvssoiJf1922WVjEUjCtskmm8QYLL6WBcmn/wg8vVJZl9QguWK1mKtiq2rtubgCPdPZGnDAAcMqq6wSY/lBBx0Uhh566JgoILsnnXRSq0ebr+shBOqdZT1O5czpCC6Gk5199tnh1ltvjXzxP//5T1N6V95iQ0RVy0xG/corr4QRRhghLLTQQuHhhx+OmfhEE03UEmwICGJ6yCGHhJFHHjneQxVApoekIIKU3p+TbLfddtGxIFyqlgxB9pZExszoNthgg2gQKsHFn0888cRhr732ihlkqzLVVFPFLEErkGgfMljOUFXUz+GEHBMZhn2+/vrrcb1JUnUs/Z2j01rkSB1wqhLvscceMQutJFrAo446ajwbZ1KL0PkMfDhuCUAnCKJqvwi9ysd8883XtSyOkxO13rQvuKpOP/jgg7ECLynwObiWieqnn34akwgYyd5VAA4++OBY5e4TIiAI/HvvvXdQ2UmV/jJRpQd08uabb457mHXWWcPhhx/eVZEorjXpzBlnnBGDg8rJnHPOGejOWGONFYNIsfUvodJxEKS33HLLqJe//vprTKIQVSMCki3Jn2RB4GI/lURyoxJCz1VLnJUkA56ckC4DhyRJY3+q5AiA6tUCCywQq1p8xgQTTBAOPPDA6MgIwiDw+ZlzosfOKSVuzk91SAJqj+zOOt27VutfdWDnnXcOV111VawabbHFFnH9++yzzz9a/+yZX4ETfRtiiCHi5/0iZaJay0bZKuJnPwiRezkrfsh5/fTTTzG4J33QCeHPHn300ehHnNPKK6/cloo68wsvvDBWMAg/iBzweypc/EvCfpJJJgn3339/+Oabb2JnxtmwRf7CPtjbYIMN1qVb9mT8pOy3rB+2qm7OSVHAXvqWSMidk72l1r/927tOk30oIrzzzjsNLbFevOmUuJDihm4l+06tf3otVkue+U0/T108BIS+6GyWRXxW3HF9EnpizEo3dKmlloqVM7ZGElGmg+xmlFFGibrDT5E333wz+ji/p85pQweQP9TjCNQ6S365Hqdi786UDymL6n4zele+vi5RFfAFF9mngEsEVoqIWMrMuktk+yqnKrXInQy4OF/jeZyO7FagU20ttmlUXgVOaxMAkJjbbrstGgunba333ntvRRLQyB609Y0gIM8wSSKThIlnC94vvfRS189Si4nTQCqL4j7atIKHwKx9IjjKSIxXILnI+TPPPBODWDURFOsRVRm1QAy/ThFEVdVbdV6rQHuJCKwq7fRhvfXW6yKqRkM4PBjBxO/bbLNNTFrKRNWIh3NBmOgwwjj11FNHEtgnBFH1TPpM5/xCrspElYMXTAUUuoWU+TtCmMY40noTUeXoVSi0cOn88MMPH3WmSFQFYh0LlRCBWWeBLdET9oGoCk6rrbZa1DHkHwn0XAldWei7pImzQS4lAbJnz7cHRBSBFgidh3NDKBFVZ8s+VHaQNCQCadNVcZ7Ikv1IWDg71UDrlgQiAJ7rftbG5unFmmuuWZOoIob2ad9sB6llX3Auz6jyNQgMgoyc8S/uL7fCFNAAACAASURBVHmAYZGo1rNR+6WLzoLTXnXVVeP92DJbV+XkR/1i9wirc+Ff3dv+2bN9tyrJryD3kgqVDr7PmrSAJYCSO9jQNy1biQjixq+yEb6XPjhn2Bd1q+y37INtwc9z6LyESaGhO+NDM3hYA72HO5srz6iKD9tvv30cN0PCdOFUIavNUteKN+y8U+KCRIjvZNN0ik8txlB+aLnllou6l4iqs2cT7K9cXWaXkpBi95TO8L/XXHNN7GrCpjg6AFMJG/uX1NAdZJZIlPkrVddGRpSaOfP82fYQqHWW/EA9TsVXqspfd911sUOqSyPp1YlvVu/KO6lLVM00CbocMMUknK3sOVUB24Pn/16t2oOwAMMGBSRKrsKaRMVGEET+BFOOsDiHKaD5mQBMVGpSRRVJ025IldBW1iy4WpustVhVUF3S3kdUVUe0RZKYEdLel5Vy5kUpO3z3UPkotuwQLuTC3qpJPaKKJAuIqh2p0tvK/rv7GtUuxJkj5ewEUISd40QsVNXNPKl2qdQhSMMMM0z8lc6Xc4V5kahqNXGWqgaqQURljjPmoPuEJKJKp6eddtoYFFUri0QVUZNECSYIBFHZMl7D2Mvz1ImoIqUIJkE2kC86UCQTbAMZSlUSz0J+2HEiqoIP8pdEpV02XCYXgouuBzKHyBXFfVVlkVQZOUF6f//997h+z0NEJSSELloHO1XNgo9zhwNBDjk7HRf2ai4Q0UtCL+gxP1Gromot7E2gJciyipLqUSWievfdd//tOc4DHoJykajWs1H7Rb6RF6LqdM8990RHTfzOB9FN1Sc+hSNPInjzfarS7QhyjjyoftEFmLEnyY0KOj/mGeyK/aWZdutRESX0FYFDXGsRVRV6NlskM/y2c/OsviWXX355JEt8A//nTOkWXZMsSXQlTvbLP7BDCVyll+ZqxRtJWCfFBYUSLXf2xd/7M73VGVVs4Y/EUZ0EY2eSI+fv88kO05ml2MIu2YG/K3roFCCwdEvnhp8R5xSTxF2JnjgmPou98OZH2AM/wl8kn9e39CM/9+8I1DtLn67FqcQBfkcVnq/FWeiIRNm4UDN6Vz6bukQ1kbNKRJWD4gjbFXMMKmMcq6yWcNYyL+AlQVRVcBiU4KctJTtMAhiGJ3gj0YzDZ1TWXAtkbzm3+kKV9j3i9O6773aNK3g2osoZIEWcPlKaJBFVB1aukpSJqtY8PIuYcprIAMOuJvWIKudrzY284dzuWTZzfSKq2gLIuMqNQMKJqqpp1wsAqfWvOo7wIHv+jTh/iUmRqKa2XqW1cOKIYE8LoiqAqTqmShlSiKCkl6lSt6L8TQUCiipl8cVB601EVcU1tY7pM8eAiBTJhACNsBerKfBlU4moSg7NrSVxT4S6UjInoLNFCYUkgB3Q52p7SPfkN2Tq7JvYv6DvjFS9BEtENYk/I5j2g6gKrMW3+tk2m3Z9LaJqL3xFkfBJAmX4lYiq5FOQTSIYGx+QFBSJaj0btV9E37OJtao26x4Qtrr44ovHfbFr4wiqfqqfAjmBc7q+VT1FwiQ9fCAdtCY+lU4JGPSDHSChfBeiojWuip1EdVHCIdmvRVTpTOqGFNerCl8c3Wp1L+1cB1NFFQUXcQMxR6orvQisUi9hkViUpVa80bnrtLhAtxSWnC9SqQIqzurGKKSklj4cnDN/Izms9JITm3O+Rv28D5EIK53hk5BPVWk2hBD7N4RFkice84OILF3yHN0SOsVWsnQOAvXOshanEhfMIPNn4gz58ccfY+eZX1Vhb1bvisjUJaqJACjdU3TCMC1akOME2xFG4H6Ut/iWqiCkjShQJLFhCm7DyKa2fyK2PsO5A0s2r3Uuqys6fJ9VIbD2VkRlT9aAKHFcSRBhRilzFAAQ2iSp9V+uwvp5o0TVZ2t9xUg9osqJasulNzVb2XtPXCN4q6giXrJszg7x4uSQGCQ/EVUEBvlDulX1xh577DgewhGWiSoyqlUB+74lRaJqDYiCqiR95KAFhVpEVdJWfvu40lv/1Yiq4CNIq7Ymof9aoImolr+eqhZRdQ9tRbqmcqYy6d6CFmdU7WvByl9P1ShRZRucXiWiyr6dcT2iqlKUnKb11yKqZuYQxiTNEtVko80Q1eT7EHJVWEkEh29coF2iiqSYKUuJGbLsnNiZpF2C4Fnsx3sHlb6eqlGiqs1Mn1Mnq2/ZXLXnphlVCYrz0Y1I88fFa9iSWEQXylIr3iiQdGJcKH49FV3QfSomY2mPCgCq54oZjQji6bMq9JXETDqs2VBZahVuGnl2/kyfRaB4lvU4FU4kaeG/kogpOFGl94Ka0bu6RNUDZWGy0fQylbaaVolqa3nushkY01yUDLb8UpaWEaehcpKEsZmrURVBRJDoYqVRpYARITKqnMh18WuPKlVpm1mvz8oorSNVu5ANB8S5aeUhWaojqWqndanyXGxfpmdWav1rzRXnKAUTFRiBpZrUIqrWhahqeXfaV4IUiSpCooqq9SyQqramar5z9ncklQ4m0TY21F8mqiqJCBQihtASL/ykRKPZM2/l82WimsYvkCyBTWBPrX86nNrtqfWPDKYXjtLzmyGqEhM6Z4QgiTWZW2uWqJoZZv/FOWl2hQQJ7oK0iksaw0GK/IyN1CKqElFnCJv0QqXKnevYFQLn/roRSSQnqmPwqdf651h9nqSXHqu1/umcilES3zjBbjjecuu/lo02Q1RVmellSsbpuZlSlb12iWr6mioVXcl9qmxK+AQf/lNimN47aIeo8m9wVbVLwt+o5KUxnVZsqJ1rdF60velk8XtUVdhV9OkyIpdGQzyL7xGLKn0rSr140ylxwXnSY5XLIlE1HqWzI66KSbo6KXYjlHxjJRLrHNlk6kyoiuoq+DuyL9YhrWnsx591hMQkBRxYKg7Bh/DVxmL4doWdLJ2DQL2zrMep8CvjH+llKhVVdqarg4s1o3dlVBoiqhydtrlWH+M3H2a+pFpG1Qj0MiuBRNAuMvBiUDYUbvMMguJ7kxQLR0i1UQUFbUGBRHVHwEdskVnzMX4mKAuG6euOrNnfWxUOUHUT+AxdtuDFhFRNkK0jrJyjQCyT0L6vFHhS8ORYGLM9qmIIXJyBexbfpK225lpEVZVIsCrOIra69+6+rkhU3ZvzM8MneNCJIlH17/4NCUI+VcVV1pFSOlHpZSrng/Qjsxw3Yiio9gkpE1XPRB7pKANO36NqXc6PjSFrnDiH4d+K3xLh+maIqoo0x+J52nEqabAQuJslqogkgquDgjzDXLuYfSLeaQ+e4Ry8wGY8AJGsRVT5EpVEM5qwYQ/sBHbWmF6mgonqMsKq8pPa97WIqmqscQVVS+RPAktPqrX++Qrr5m+QVuM3SAs7LL9MVctGmyGqEi8EUTBX/eZjJVf8U5pxbUdXJbgwtP6i3iMSklYJfUqAmyGqZb/FroxrIN58NTLj3v5M9/qGIPvpm2P4EbPvKtbGFJA5L4shV3wjv8K/KEAYuzD6Yo/ItzEkXYh68aZT4oLRBeNQaU6QzRqnkrDxr2IR+1JIYbvmeCVjEtr07TJsxCiWM9UBQTidrVhGL7XxJYve01C516lhPxI49glr+kToNP32cySWfbMtup+lsxCod5b1OJURPrYjKZLk43bsRizz/k49vauFRkNElSPyUBtRARCsVDuQq1bFGEH5xYx0r/SF9KoygoLfkRMBsej4kDDBV/uK80UO/U44fgaHVHurFcnWBmznZSr3hQVjVeFDOARwJDlhIVBzbkgUg7VH1adq39WnbcaIOVaO0r0ctFEBhNyzPKOSGG1IL7gVf+76RP45UFl0pbmrVs+uu64rE1VEgtNT9aHYRaIKP8kRBygREWBhywnTDSSp+D9Tqchxkir/CKBgLdPrk19PlWZUE14GylUWrC0RVeTTGata0CfETQBJleAi1s0QVdfRfyM1niXJ83w6yeFU+h7VWq1/60N6JQqq3wIZzLWN+QTn4fzMALIxgdGfaxFVrXi2izyY62ZDyAM8UvXfi1mSNT7A51Owtb9aRNVe09dTmTWV/LALiSWSXfyfqfxZ5QiRYSsqgQJq+nqlSl9PVc1GmyGq9m50StdD0JegWjefxxfApR1JL71Kqosvnbq3s0tE3DOaIao+X/ZbqvfOTUGAD/Y8z+lbAkf4SfYRZ2fK9hCp9F4DwiUhUgnW0UOsk99UjVQFKn/VYLV400lxQdIr8dOdkewims4DHmxSIsxG07se9K04ZsSP0p30vaq6Gs6bHYmjyHyqkDpfY0oSQ/aj+IQbpA4JnwZTuiYxZd9IdLX/AKdv6Ut+7v9FoNZZNsKpJIeSYjFOkq+glLrL9fSu1hk0RFTzIWYEMgK9HwEJjxEDBD7L/0egmf9ONePW+xBo9b9QRd4k+u0UZPomWq3+F6rGeIzzGH/JkhHoBAQyUe2EU8hryAh0MwLp5TOznCrzKu9abtpwZs6zZKKadaA6AjpjOlbt/O+LvRVfnSudvfJXVfXW/eR1934EMlHt/WeYd5ARqIiAlq+5SyMDZoaMvrTzv7L1qzDnimq/erJ5XxmBjEC/gEAmqv3CKeY9ZAQyAhmBjEBGICOQEegHEchEtR881LyljEBGICOQEcgIZAQyAv0CApmo9gunmPeQEcgIZAQyAhmBjEBGoB9EIBPVfvBQ85YyAhmBjEBGICOQEcgI9AsIZKLaL5xi3kNGICOQEcgIZAQyAhmBfhCBTFT7wUPNW8oIZAQyAhmBjEBGICPQLyCQiWq/cIp5DxmBjEBGICOQEcgIZAT6QQQiUU3/XWE/uL+8pYxARiAjkBHICGQEMgIZgV6IwH//+9+QiWovPLi85IxARiAjkBHICGQEMgL9OgKZqPbrJ5z3lxHICGQEMgIZgYxARqCXIpCJai89uLzsjEBGICOQEcgIZAQyAv06Apmo9usnnPeXEcgIZAQyAhmBjEBGoJcikIlqLz24vOyMQEYgI5ARyAhkBDIC/ToCmaj26yec95cRyAhkBDICGYGMQEaglyKQiWovPbi87IxARiAjkBHICGQEMgL9OgKZqPbrJ5z3lxHICGQEMgIZgYxARqCXIpCJai89uLzsfyLw3XffheGGGy68+OKLYYoppugnIfr555/DEEMMEZ544okw44wz/mOP1113Xdh0003DJ598Unf/e+yxR3j55ZfDNddcU/ez7Xxg7rnnDssuu2zYfvvt27lNxWt33HHH8PHHH4eLL764oXuPP/744ZBDDgmrrLJK2GGHHeK1l1xySd1rZ5lllrDOOuuEzTffvO5ne+sHbrvttojLt99+W3ELzehWT2Aw9dRTh+eff74nbt2r75lx6dXHlxffAAJNEdWnnnoqrLXWWuGVV14Jxx13XNh6660beETtj3z44Ydhzz33DLfeemsYcsghwxJLLBH233//SDjIs88+G4MD8jHWWGPF4LLBBht03fTCCy8Mhx56aHjvvfciOTnhhBPCTDPN1PXzU089NZx11lnhjTfeiIF99913D/PPP39b6/7rr7+CACnAf/PNN2GuueYKZ599dhhppJHifTn69dZbLzz44IORVCy33HLh6KOPDgMNNFDF51rj+uuvHwYddNCW1oWgrb322uH6668Pv/32Wxh44IHjfQSeRRddtOI9v/jii671tvTQbrrosssuC6uuumrYddddI4Eoy3TTTRd1oLivao/uNKIqgHz55ZeRDCZ9tvYnn3wyzDPPPOF//yNc0yjWI6qe99prr4U55pij7r37d6L65ptvhl9++aWhpKY3EVV2MPLII4crr7wyLL300l16wEfxnW+99VZA2JNst9124emnn46+sRZRLetWu36rroL+P1+61157hRtvvDG8++67YZJJJon++6ijjoq+lVTzf6344nbiTb24UN7vLbfcEiaYYIIw8cQTNwLF3z4jxrSDS/Fm2267bYzntXzsFVdcEU488cTwzDPPhHHHHTccfPDBYckll4y3cd2RRx4Zrrrqquh7Zphhhhhz7Y18+umnca133313PKtFFlkknHHGGSH/b5hNH3sfucDZnH766ZEz4VK77bbb3zjTn3/+Gfbdd99w0EEHhdtvvz0ssMACXetq5Kzxx5VWWimMMsooUScakYaJ6sknnxwoNDLJSLqDqDLsKaecMv5CTjlCRHSiiSYKF1xwQbA4yq5CtM0224RHHnkkrLDCCuHmm28O8847b/w7kFRT5ptvvnDKKadEg+GIhx122GgsCOLll18exhlnnAjqaqutFonPZJNN1gg+FT9z+OGHhzPPPDPed8wxxwxbbbVV+Prrr+P9yVJLLRVJKcz8O+fvuQh5WQTKYYYZJnz11VdhqKGGanpNDn3llVcOAqn91iN0p512Wjj//PPDQw891PSzeuICRFWgRK4lGwMMMEDXY5zTwgsvHJDqevtKAauTKqqI6ueffx7P5/jjj+/aV08S1WbOqH8nqs1g1ZuIqn0tuOCCYfLJJ/+b3q2xxhoxeT3ssMP+luzTUz5KIl+LqBbxatdvNYr9uuuuG3799ddwxBFHhMUWWyz61A033DDGAYGynv9rxhe3G2/qxYXynhFu8U5xpllpF5f0PJ0ZyQyCUc3HPv74413xRWfk2muvjfFYciNWSxpOOumkILYoLDgXeqa4NOCAA8ZuCmzhI9ZtvPHGYbzxxotkNUtnIcC+DjzwwJiUzDnnnPGMcDNn6ax//PHHWHiT6Ep8FRiLRLXeWUtm9t5775hw4pHdTlRlQZwDQiXzFngRtHYEAWGoFF0FgJx33nkRKGz+nHPOiZmbPyfZYostYlamkqoKyRCQxiRTTTVV2HLLLcMmm2wSf/3xxx9/+/nYY48dgVfxbFUmnHDCmCFqBRLtQ4RV5UxV1M9l/8gxufTSS+M+P/jgg7jeJKk6lv7O2FWPKQmjT1Vi2Qv8K8l9990XRhtttEjmVHZrETqJAHwQar93giCqquD0yr6LSr/LLrvEs1e5TvuCsfO7//77Y9KkGrvffvtFXMsVVe1vVf977703flYFQCIz+OCD95GtIwAqWKrF1psq/WWiSg/s9YYbbojGqxp67LHHdlUkiotNOiPZoC8CteqsP9PtcnuWbSAmgwwySEwIXnrppRj4OSREVVVxjDHGCComkoWddtopsLFKQm+sS+Ci48iQ5AueqsO6DCpfkjS2Z98SD61/CYfrHnjggejwBC3JJmEXAp+fOSddAOeUEjc67jnPPfdc3CO7s073rtX6pzOSazo2/PDDxz8fc8wxMZCWW//GEr7//vuI09VXXx2rPT5vXaRMVGvZKAfv/vbDwbsXvya5d14//fRTTKqTPuiEsHfJo+qac5LYtiPO/Nxzz43PI/wgH8vvISUXXXRRF/b//ve/49lIqnVmnI0uFZ9iH5L9wQYbrEu33nnnna5qppskv/Xwww/H6ouqm3PaaKONIobtiIBmPcsss0xILe5HH300Eh9Er5b/U7Bo1BdbY7vxplZcKBdG2AT9IHyY8ZNael7GsB1c0r3oBL1GVPfZZ5+qsYO/pZvIZxI2KOaJzwsttFC0Zf6EqLjRYzbijNjxnXfeGf0A4dOnmWaaGDeLnaZ29CRf2z0I8Aujjz763yqo+AUfsPrqqwcd8BdeeCEmjbiOrkCK2eJKvbPGhVLCeccdd3Q/UcWkLUJ7FlHtjopqJWixbY5IUETuEBgONwmHj9iaVZp55pljtRVhTSLbFjgZiQCw8847R5KgzIwgCIKPPfZYRRLQyFEjEoIeY+OYkjDMAw44ID5boHn77be7foa0yiARJ4deFFVDWegPP/wQ8ZVx2IOKMuLJgSEOr776agzw1cSYQT2iijQJxFp2nSJIBCPg7D766KMYLAgnCjMBl4EkosohImYCoFEUWCErkpMyUZ111lkjtggT7P0+7bTTRrLVJ0RglXTR57vuuiv+jlyViaq9INMyVAEeKbvnnnti4pPGONJ6E1GdffbZY5VJZgsDOklnikQVKdWtUGmXZLo/UsEG2IfAwraM87ATgXLFFVeMzxUIy4LQSpoEVuRSoiqDlgzYA7KDQH/22WeREKmcOBsBytmyj8UXXzySUJ97//33g66KSt6kk04a94MsITiqgdYtmLEzz3U/FSDrRaRUlWoRVck0/aFj7JM/YV90rExU/Uy7y9r8DOnSnpLxC+ZFolrPRu2XLgrOArEKhPtJRCQhfCgHzy/BConh11ynXW+fqlWCeauS/IpERFeKz3Pu1uQM2IPkjk5IugUgPtfZ6k6xEYktfUA+nUlRt8p+C/nln+DnGt0uvlmcoHutCoIqeZFwsedqM6qV/J/1NuOL24k37LxWXKBTZZE4sD8V1Xp6Xr62HVzSvdibxJIOsLHff/+94nga26O/qWPoejrD/+puIip0ptgx5KcVVySURjToHb9NEBqJjzNrZESpVd3J17WPgG61JF7MMnpZlDJRpT+NnjUf2CNENS2wJ4mqADnbbLPFoC54CUjmPlVBkjAsQVC2L6hzhMsvv3zXzwVcGb8KEVERSW1XJE0pO1VCWzlGhFFg4cRHHHHErltYtyoIoqo6woiTIKFaHioNiFJRyg5fdmsGqNgq5qAFGQ6jmtQjqqoLgv/rr7/eVeltZf/dfY3xCYmHQK3CJIAi7JQYCfFzJCY5UQTJWAc80/lKZlTYi0RVhY+zNEPMKRJETFXVefQJQTSQMyQc8VM1lXQUiSqiZr8CFmJErFlipYJRnqdORBUpXXPNNePnBRrEE7kpkgnVDoQoVW48S0CS0SaiqlrN7pIgNSpYZXIhuCAMMm6jDEVxX2eCfCKuBAlzZtaPgLEZdkFSpYsN+zPS7dztmSB0nu8MESZnq5qaRPCzV36iFlGFu0TFfgiyzNnK6isRVTpXJEIIhGSDzysS1Xo2ar+CsrMnArhALVEhyK/9OWfVJz6FbSaxZiRPVbodUfHy7M022yxWvvgf9jTqqKNGgsHH0iHJEP1LM+0SCL6V8LXO1jnUIqoIquthmAR5Q1hvuummlrehyo34uq8gKClzLuUOUyX/J/Foxhe3E2+cda24UOl9jiJRRRpr6XkZwHZwcS8xkp5JLiUskoxq3biELb1FSP1dcUinQPyiWxIJfkY1ji8XdyWS4pjYJfZK8PgRCbKz4S+Sz2tZQfKFPYIAW6CPfIjfU/er+LAyUfWzRs+61xJVzoxD5VhVFAiwRhhhhEhGkyCqKoMqEVpWqnEcWRJEVctcFUWAYgyILqMUABmQGZtWX6gyLI44mT1M4wqejaiaAUOKtFUFhSSJqAq2Al9RykRVS177HxZJGDwywAFUk3pElXNQ5W3kDece0fwqN01EVcVHRVjlRvuRI+T4zZj5PTlRAdaZI3uIKXH+EpMiUdVyVR2qJHBQre1pcdYCmOoHJ21vSKHqVXqZCkFTqSx/U4FKqTMrvjhovYmoCjCpdYw8Gn+QhBTJBD3SIi12JFSn2VQiqqqu7CEJwoRQV0rmJBTa5oIVsoDo2GO1PaR7Im4wULEi9o8ICZbIm4xdRSmJKqDAaT8IEkJXfKsfMYer62sRVXth70XCx2btvRJR5TdUNJPAXmCVFBSJaj0btV86mciJtTov/oewVf7Hvdm1PbJL/sG/ke7oWNE3FWq6Z0zDmhBgdjH99NPHapfkwLPoBaIpCUl2ZR0+L+FARGoRVR0N1fqySIyKo1ut2hz90EGj8zpliF3xWyQq+T9FiWZ8cTvxRnu8VlyAT1mKRFUCW0vPq+HWCi7uJYnjb3Uwk73VGhtL3RgJonOgv4gp3PkkvkrSy4bol3/TxUBIJD58inlGuuSzxr3olKQ5S+chIE6JsWwNN9Px4wOLUomoNnrWvZKoMgIE0+/Ft1Q5Ui0lgSIJsiZLU7FUaURoErH1GRn30EMPHckpZ4zkFbNZZFI7rpJTbURdZLIqDGa/OKYkjFI7UuaIIKj8JUmt/3IV1s8bJao+WyQc5bXWI6rWquqR3tRsZK994jMSCgRIIJdlc3Z+IW9mYZD8RFQ5VMRIBi+gSlSQH8ZRJqqu1ZpWtetbUiSq1sApIwb0EZlRMaxFVCVtxbEW96j01n81oopkID7sKgn916JMRLX89VS1iKp7mK8UoJBbrXltdMS1EtlOzyx/PVWjRBXBYceVArhqnYSjHlHV+kXYktQiqp7HMSdplqgmG22GqCbfJ2hLXpwNIqDS2e63qqQxAoSe3klKEEd2JuHXvvUsHQnJS6Wvp2qUqCJakvfUyeoJm0szqpIW2LDt9PJlJf8nMWjGF7cTbySKteJCsetX1MXU+q9GVJOe18KzWVwkRUZiFAcUVhohquXnG6NifwoNlURLH2Gt9B5LKtyIfe2Mt/SEjuV7/hMBo0L8RrHL61OViGr56mpn3euIapqLUlkpf00Hp5da+QkA1REAycg4K9l/sdKoxaqCgciocipZF7/2qFLW3Kxy+hos2XyqdiEbSJPsVitP0Gb8qWqndK4CUGxfpmdWav2rphXnKAUTlUWBpZrUIqoCMKJKaTrtK0GKRNX8LxxVwgVSv9KohWyfUzQfjfgn0TbWnigTVSRQBijDd0/i3+iL8+kTUiaqafwC+RIUrSe1/lX+U7s9tf61O8stl2aIquCp9aqSkURgUElplqiaGRaYinPS9FFCILEQpAXdFJAlHn7GRmoRVZ0RZyghTR0KlTtBTlLIDhBxdpJEcqJFn8ZDqn2ParFq5Nr00mO11j990zFJor3sq3YkRuXWfy0bbYao6pzQA+dP6Kc5dkSiXaKavqZKB0LVNFU2+SaYsyUvjhnTIO0QVUkwss1ekzhT/iaN6TRrc9bJl9MrhDQRMkUCI1Tem1AYIJX8H91qxhe3G29qxYVi9y3hUG7919LzInbt4mJEjQ1UEliXuynOkU2mzoSqqK5C+jYetsg3pLEfiRH7UH3VyRTjFYfEMeIZ5p4VGNL5Nasb+fM9g4BiinMSO5LohuEy5Xc7Mcs+FwAAIABJREFUKhHVRs+6x4gqNs3xcQgWozJnQ17W8LJAK4I4UWSgqPSURVAGEIPwsoZKDiMza6ha6sUKQUGGrRWBvHqblqEAERjaP4KyoJW+7ohD0gprVRANFVlOXlARbMz5pGqCYI2wemlJlcEcjoy5UuBJwVOAZMz2yCGoIiPayai1QdPcWKV11yKqnJLWVHEWsdW9d/d1RaLq3ipJZqEQezpRJKpmEumaylAitPAS6OlEpZepnA8DQ2bpEGKoHdgnpExUPZOu01G6n75H1bqcn0Cv8sWJS2o4+uK3RLi+GaIq+aNDSBDip5KmdU8/myWqSDabE7CQZyMFApPgzB7SHgRbCYdKivEAbxPXIqq+GcMIgfsgO+ZIdUWs2xrTSyYqS6rL3j7WJUnt+1oVVefunnTM7K0qkDZWtdY/X+Ez7BlpNYKC6OvclF+mqmWjzRBVbVAE0b5Uv40qsFP+Ks24tqOr/CIM/V7Ue0QCiTQCkRLgZohq2W/xd5IY50EXkBnn78/VRnDq7Ys983nGEvhO90nfCsO/F8eYqvm/er5YF8xcHeLbbrypFxfK+xU7VfwVIeClalVNz4vXdgcuZeJbnlEt4qIDoojkbM0ssxHJL3LqPQ2Ve75aHKZXPmPu3pkQOo0z+LnYLHlV6eaLsnQWAmIPGzPbrSquK8Hv8g1lzlSJqDZ61j1GVClqpVkj2VetlnStYxA0qrWi0xfSm90TFFRnkBPt0KLjQ8IYt+xMlgdgDoBw/AxOOw8RVE3SBmznZSr3RXYcqACIcAhMWqCqSoQjYawqFcYQBAMHU/yO0CIuSKwgqYrCcQmkSK5qIHJgf6pglQQJLs7Vpc+o4ibyz4GqRgq6nSZlomoG1bpVqb2YViSq8BP8GA0jEWBhKxghPEhS8XtU3YPhmK9BAAVr1do++fVUaUY14Z6+YN7aElEVIDl/JJA+aQE7s1QJLp5ZM0TVdfRfAidhQgA9XxCReFb6HtVarX/rQ7K1DJFRAR7m2sb2osvg/Hw9FRsz/+bPtYiqFwfZrhk+gc35IcB0PlX/2RF74wN8XuKa/oeoWkTVXtPXU6nIS374B9Vs5Kf4P1P5s8qRvbAVz6Y76euVKn09VTUbbYao2rsAwLcK+hJU67ZHvsBsXzuSXn41p1psP/OpEpdExD2jGaLq82W/5V70WEGAL9YhsId2RNLqrFOlGxHyVWcSPjZdz//V88X0jS1ISkg78aZeXCjjIDGFF9+uK1FLz8vXtotL8X6VWv9lXNi5c2BH4qgKfaqQupdzlhgaXbEfe0tVZJVvNq3QwE/7s3Gvav8BTjv6kq9tDwGdM2frvPkkxZYiZ2Ir6Sv7ik/iT/jDemdNJ4xAlsWoZPlbBYqfafgL/9vbfr46I5AR6AQEtLIRCG3fLP8fgWb+O9WMW99BoCf+q1CdMeMBrXYF+w4Sf39qxqUTTiGvoScRyES1J9HN984I9EUE0stnZjlV5lXeVY60mc0oZslEtX/XAR0a3bD01Wj9Ox5p/xmXrAmdhEAmqp10GnktGYFuRsB8qnlRIwOqqdo47fyvbN28vI65Xa6odsxR5IVkBDICGYG/IZCJalaIjEBGICOQEcgIZAQyAhmBjkQgE9WOPJa8qIxARiAjkBHICGQEMgIZgUxUsw5kBDICGYGMQEYgI5ARyAh0JAKZqHbkseRFZQQyAhmBjEBGICOQEcgIZKKadSAjkBHICGQEMgIZgYxARqAjEchEtSOPJS8qI5ARyAhkBDICGYGMQEYgE9WsAxmBjEBGICOQEcgIZAQyAh2JQBdR7cjV5UVlBDICGYGMQEYgI5ARyAj01wgM8L//p/uv/hqBvPmMQEYgI5ARyAhkBDICGYGORCAT1Y48lryojEBGICOQEcgIZAQyAhmBTFSzDmQEMgIZgYxARiAjkBHICHQkApmoduSx5EVlBDICGYGMQEYgI5ARyAhkopp1ICOQEcgIZAQyAhmBjEBGoCMRyES1I48lLyojkBHICGQEMgIZgYxARiAT1awDGYGMQEYgI5ARyAhkBDICHYlAJqodeSx5URmBjEBGICOQEcgIZAQyApmoZh3oJxD47rvvwhhjjBGeeOKJMPnkk/cTeypv4ueffw4jjjhieOCBB8L000//jz3eeOONYeuttw5vv/123f3vu+++4dVXXw2XXnpp3c+284GFF144LLnkknFd3S277757+OSTT8I555zT0K2nmGKKsN9++4UVV1wx7LbbbvHac889t+6188wzT1hjjTXCxhtvXPezvfUDd955Z1h77bXDxx9/XHELzehWT2AwyyyzhMcee6wnbt2r75lx6dXHlxffIAINEdWvvvoqHHjggeGOO+4IP/zwQ5htttnCrrvuGqaddtoGH1P5Yx999FEMHO475JBDhkUXXTTsueeeYbjhhosXPP/882HbbbcNL7/8chhzzDFjsFtnnXW6bnbJJZeEo48+Orz//vthsskmC0cddVSYYYYZun5+5plnhvPOOy+89dZbMbDvuOOOYd55521rzX/99VcQIK+//vrw7bffhtlnnz2ccsopYaSRRor39W+bbrppeOSRR8Lggw8ell566XDooYeGgQYaqOJzrVGAGHTQQVtaF4K20UYbhZtuuin488ADDxzvI/Ass8wyFe/53nvvda23pYd200VXXnllPM8ddtgh7L///v+4Kz2jA8V9VXt0pxFVAeTLL78MTz31VJc+W/vTTz8dFllkkfDFF180jWI9oup5b7zxRrTPetK/E1U+4ZdffmkoqelNRJUdjDPOOOGiiy4KSyyxRJcanH/++WGzzTYLL774YhhvvPG6/n2XXXYJzz77bNhpp51qEtWybrXrt+rpZ/KlBxxwQLjlllsCnzXxxBMHZ3HIIYeEIYYYIt6imv/zs2mmmSa8+eabf3uUhOP000+v+Ph24k29uFB+4O233x7PYaKJJmoEir99RoyphQs/IeZcd9114Ztvvglzzjln2GuvvcIkk0zyj2ftvPPO4aSTTqrpY6+++upw2mmnheeeey7qFt+x2GKLxXv99ttv4bjjjgvXXntt9D3TTTddOPnkk8P4448ff/7ZZ59F337fffeF77//Piy44ILhxBNPDP/617+a3ne+oOcR+PPPP8NBBx0UDj/88Mhx5ptvvr89lP/Ybrvtoh/BqTbYYIOw/PLL/2Nh9IGtSXDTPerxvVq7a4ioIhNIxWijjRYJjkUOO+ywkUQkgtYshAx7pplmioECOUWGVTkmnHDCwAn6/12nnHLKsOGGG4bNN988PP7442H11VcPjGbuueeO2TVHrJri765hMC+88EJcG4J6wgknBA763//+d7jrrrvCuuuuGwnkpJNO2uxyuz5/zDHHxCrMBRdcEEYfffRIfr/++utwww03xM+o1iClxx57bPx32K200kpBQCiLQAnTDz74IAw11FBNr0lFDMmdccYZ437rEbqzzjorXHzxxRGLThA6BRfk2l4GGGCArmXRLSQfoau3Lxd1IlH9/PPPwworrBCOPPLIrn31JFFt5kz7d6LaDFa9iajalwo2H1fUu/XXXz8mrwhOMdmXUNFRQadWRbWIV7t+q1HsVbARIYFzueWWC3zvFltsERPwpL+1/B9SdeGFF4a55pqr7iPbjTf14kJ5AYsvvngsvCjONCv1cHHfJ598MhL6scceOxx88MEx7vGpxYKJJFpsQiar+Vj3of+KMfQK8ZDUPPTQQzFWi7mI//HHHx8TgyOOOCLqmc7WgAMOGFZZZZUYy53h0EMPHbbaaqtIdpHjLJ2FwI8//hhWW221MO6440behGwWiepPP/0U+ZrCGDukG7iZ86ZnSRQz2ZzYzf7cox7fq4dEXaIqC0LIxhprrEhQBxlkkKCdR1GRs/nnn7/eMyr+3CYQU8Y08sgjx8+oAhx22GHRoBBBSu/PSTB560G4VC0Zguwtycwzzxw22WSTyPIZxB9//PG3n8vIZZZrrbVWS2t20VRTTRWrybIFon3IYBm9qqifv/LKK5EckyuuuCLu8/XXX4/rTZKqY+nvHB0HdOqpp4azzz67q0q8xx57xCy0kmgBjzrqqLFyt9BCC9UkdD4DH1mSBKATBFG1X4ReNbxoFJIXVS/rTU4UrioFDz74YKzASwp8Dq5lovrpp5/GJAJGsncVAA5blbtPCAIgiO69995B9SRV+stElR7QyZtvvjnuYdZZZ43ZbKpIFNeadOaMM86IweG1116L1RK6wz7L7VkJlY4Dm91yyy2jXv76668xiRLojQiwbcmfZEH3gv1UEsmNSgg9tzZnJcmA5//+G+bYZVD5EgjZnyq5xIOvWGCBBaJTe/jhh8MEE0wQuzOSS/Lhhx/GwOdnzokeO6eUuDk/FRkJqD2yO+t071qtfwRHteiqq66KFW2O1fr32Weff7T+2TO/Aif6plrn836RMlGtZaNsFfGzH50g93JW/JTz4uwF96QPOiH82aOPPhr9iHNaeeWV21JRZy5A0DXCDyIH/B5Swr8k7FXZ7r///lh5E4CcDVvkL+yDvQ022GBdumVPxk/Kfsv6Yavq5pwUBeylHdGxsx4EKbW4FSwQH52xWv5PYBxmmGEiQWvE37Ubb2rFhXJhJMVP2CCK7LSWnpcxrIcLn8M+kz9VjUYwXnrppUhCkk7Qa8UeGFcjquIzDNlFEnpizEo3dKmlloqkhK0RFTmElQ66/yijjBJ1h58iKtx8nN9T57QdHcnXdh8CKp50hH46m2uuueZvMVmRS2VddbyW8Odi1d133x19Lj2sx/fq7aIuUa10A86Y8lqwal53iWyfI0KAkTtV1mKbBpGVuammCnSqrchAEuxe4GQkAgASc9ttt0Vj4bSXXXbZcO+991YkAY3sQcvFCALyLOAmYZjIhmcL3g47SXISSAFSWRT30aYVPARmGYzgqDpspADJRc6feeaZGMSqiaBYj6hq+wnE8OsUQVRVvSU7ZuMYQXKiHCt9WG+99bqcqOoDhwcjmPh9m222iUlLmagKZM4FYUJaOe+pp546ksA+IQKrZ9JnOucXclUmqhw8ooD80C2kzN8RwjTGkdabiCpHr0KhdUjnhx9++KgzRaKKUOhYqISoQMmQ2RI9YR+IKjIjg6ZjyD8S6LkSurLQd0mT5AC5lAQgEJ5vD4goAq2K7DycG0LJ6Tlb9mHkAUnj8JA2ZMJ5Ikv2I2FBbgR265YEIgCe637WxubpxZprrlmTqCKG9mnfbAepZV9wLs+o8jXIG4KMnPEv7i95gGGRqNazUfuli86Cs1911VXj/dgyW1fllLj4xe4RVucyxxxzxPXZP3u271Yl+RXkXlKhusX3WZM2nQRQcgcb+qZlKxFRaeVX2QjfSx+cM+yLulX2W/bBtuDnOXReVU+hwd9bFYRdQqr6JthVm1Gt5P+SP7AOWNMt+op4VepetRNv2HmtuEDfyiJx4O/4tHp6Xr62UVzSdQgDfUYOU8tdsiqxZGd0TaJWaTyNXUpCUsfQPekM/4vIILp0ptgxtCccgf1LauhOqmpLlPkrVbhGRpRa1Z18XXsIVCKqzpOO6ACLF4pxOBa7SsL26SdfTS8SUa20miLfq7fapoiqbAlb5uwFPI61u0S1B2FBMLWhBCRKrsKahGEJgmleiSMszmEKaH4mABNrTRVXJI3DS5XQVtYtuFqbmdhiVYETlRkjqqojqs1JlMG19xF7zrwoZYfvHhxYsWWHcMHa3qpJPaKKJAuIqh2p0tvK/rv7GtUuxFmgptQCqCAiaCIWqhxmnpITRZBUSfxK5ysAwbxIVFVcOEsZomoQUbEQMATVPiGJqNJpFZDtt98+ViuLRBVRk0QJWGnOR2VL1cN8WXmeOhFVpBTBJMgGe6QDRTLBNgRo89/EswQkRCoRVcGHQ0mi8qS6UiYXgouuBzKHyBXFfVVlkVTVFcKJ/f7773H9noeISkgIXbQOdvrOO+9Em3fucCDIoREfGTh7NYdeJCj0gh7zE7UqqtbC3gRagiybBzQiU4moCubF5zgPeAjKRaJaz0btF/lGXoiq0z333BMTFeJ3Pohu8qd8ivn6JII336cq3Y4g58iD6hddgBl7ktyooKf5MoGH/aWZdutRESX01RgV4lqLqCI9bLZIZvhteHpWq8LuYeVsVKZVaRMJKt6zkv8TTCU8kjBnYv/8BFus9AJdO/FGElYrLkjmylIkqvCrpeflaxvFxXW6HWxMNT1VuN99991YCFFokrCwk2oV1YQtu2QH/q7o4TwQWLoFT35GnFNMEncRY3FMfBZ7Jaf8CHvgR/iLSrONrepKvq57EahEVCXdzl/8oFPOWjeKHvDpfD69omcKiF5erUZUy3yv3uobJqrFoXUOHGkcYYQR6t2/oZ/feuutsTLGsZqlIhyHzIshJPFMRi/ACX7aUmaXkiBzHJTgrR3KOHxGZc21DMhbzq2+UKV9jzgx9DSu4NmIqlkcpIjTR0qTJKKaDrMISJmoas0LLH4lMQ6ADDDsalKPqKqeWXMjbzg3dGDd9KFEVDlMZFzlBkmRjAgy2vUCQHKiquMID7Ln34jzl5gUiapqYnEOr7jcYvurm7ZR8TaIqgAm20yVMqQQQUkvU6n0qlSWv6mAgatSlveQiKqKa2od02dVIoG4SCZkvwh7sSMBXzaViCpncdlll3Wt3z0R6krJnEooW5RQIAvsgHOqtod0UyRB1YV9E/tXsXVGsm+ODlFN4s8Cp/0gqroYxbf62Tabdn0tomovfEWR8CEH2tqViKrkk+NNIhgbH5AUFIlqPRu1X0Q/kRNrVW3WPSBs1XyifbFrjly1VfVTICdwrkRumtFX3QZJDx9IB62JT6VTyBr9kBAhoXwXoorMqO4lUY0UfCT7tYgqnUndkOIa6XZxdKuZ9Rc/a030zplKUCQfxW+RqOf/0r0QXgmMqr9KbVHaiTeqSrXiAn9WliJRRaZr6Xk13OrhIunwbEmLZDZVTGGAUKgiJ3ur9R4Am3O+XrrTQU2Elc7wScin0QA2JJHzb54pyROP+UFEli7xa6q4dIqtZOlMBCoRVXqjK8wnJuHbdZ1wDL5VcUScJtWIaiW+Vw+FhogqByo4yZAxaQstt7HrPajazxkBQ6e8xbdUBSEOpQiKQELBVSyRTaw9EVv359wNbMvmGaKsrujwfVaFAIltRdK8LqJUfIMSEWaUMkcBAKFNklr/5SqsnzdKVH222puqflbPUXOi2nLpTc1W9t4T1wjeKqqIlyybs0O8ODkkBslPRJVDRf4YhKqe4W2OliMsE1VkVMsS9n1LikTVGhAFyQ195KBVDGsRVUlbcazFPSq99V+NqArk7FaASkL/OaBEVMtfT1WLqLqH+Uq6pnKmMuneglYlsp2eWf56qkaJKttA4ioFcPbtjOsRVZk9cp6kFlHVFkUYkzRLVJONNkNUk+9DyFVhJREImcpFu0RVW9acfkrMkGXnxM4k7RIEz2I/Cg6Vvp6qUaKKaKUXJ3rK3tKMqsRKwYFtp5cv6/m/tKake7AoVrH9vJ14o0Ciq1AtLlT69pVGiGrS81qYVsMlvSilCp2q++5z+eWXR/tXHFBYaYSolp+PeCp8qNBXEjPpkkE2VJZahZue0p183+YRqERUJXNGR4rjgynOiFe4Id+SZrIrEdVqfK/eChsiqilj1m7kVFM7td7N6/08zUVpjZW/pkPLCIFVOUnC8XphCXNHRGSBxUqjSgEjQmRUOc3FFL/2qFLWXG+N5Z/LKK0jVbuQDaRVoNPKQ7JUR9LQupaO1k6l+apKrX+tueIcpWCiAiOwVJNajtq6EFUt7077SpAiUUVIKLjWM2VXbU2jFs7Z35FUVcAkDMNQf5moqiQiUIhYehtRCywlGs2eeSufLxPVNH4h+AhsAntq/dPh1G5PrX9kML1wlJ7fDFGVmNA5IwRJrMksZLNE1cs4uhjFOWl2hQQhyoK0iksKyIiAn7GRWkRVIuoMYZM6FCp3rmNXfI3760YkkZx4qRM+9Vr/qWrk2vTSY7XWP51TMUriGyfYjWpRufVfy0abIaqqzPQyJeP03Eyp2a12iWr6mioVXcl9qmwiJogE/ykxVAEh7RBV/g2u5haT8Dfaw2lMp1kbsk5rl6AjpImQsWnjEXRHYYBU8n/2a106MKl6Ks6oLrO9si9sN97UigvF7lvCodz6r6XnRewawcU4FLy03svzsYhrMSEr3hvW5W6Kc2STqTOhKqqr4O+q9mId0prGfvwZQXEmCjhivOJQepeFr0ac+fZ0fs3qRv58zyNQiahKcnVlFZaSpBcdFS4lrJWEP+eDavG9ejuqS1Qpopc3iCBXJKlaRa2+oSqzEkgEbRWEsgjKXqhBLhkExWdkysoIqYxRUNAWFEhUdwR8xBaZZaR+luYp0tcdyQJb/aYCa+T4GLSWmsNRQTXnk+ZikXmEVdbBmcJI+75S4EnBU4BkzPYoQxG4OAP3LL5JW+0waxFVTonDL84i1lOKPvXzIlH1TM7PDJ/WHp0oElX/7t+QIORTVVxlHSmlE5VepnI+SD8yq+WEGApefULKRNUzkUc66mtA0veoWpfzY8gCGifO5vxb8VsiXN8MUVWRlqx5nnYcJwMLZLJZoopIsn3VLOQZ5trF7BPxTnvwDOfgBTYdGESyFlE1L62SqLoFG/bATmBnjeklE5ioLiOs5iZT+74WUVWNNa4gg0f+JLD0pFrrn6+wbv4GaTV+g9iww/LLVLVstBmiKvFCEDlw1W+VQkSMfypWwVrVVwkuDK2/qPeIBKImoU8JcDNEtey32JVxDcSbr0Zm3Nuf6V4rQo8UAMQXlTm+n9+lb/x7cYypkv/zrQVakvRQcoNwqbDrGqT3FuiCkSNrbzfe1IsLZQyszXp0uSSCxmiq6Xnx2kZwMT7layMbeXG2UkW1iIsqNMLpbMUya9TGlyx6T0PlXqeG/Ujg2Kf3DOgTodP028+RWPbNtuh+ls5FoBJRVUxiKwqX/DEOhJ+wv0rf0VusqNbje/WQqEtUUxZa6UaqX9VYdL0Hm1Mov5iRrklfSK8qIyj4HTkREIuODwkTfLWvgMIw/U44fgZnpslbrRyBNmA7L1O5L6fMWFX4EA4BHElGNAlHYi4IiWKw9qj6VPyO0CI28GPEqigqte5l6N+oAELuWZ5RSYw2cBRlcX0i/xyoaoFz7DQpE1VEgtPjPL2YViSq8DN8zwEKVAIsbDlluoEkFf9nKhU5TtJLVAigYE1f++TXU6UZ1YS7759UWbC2RFQFSGesakGfEDfBuPi9dOn6Zoiqa+i/kRrPEug9n05K4ip9j2qt1r/1Ib0SBQ5LgIe5trGqoPNwfubg2Bhy4M+1iKqqEtvl+Mx1syGVGXikipcXszhDPsDnJTPpf4iqRVTtNX09VfouTnYhsUSyi/8zVSIyWu9sRSVQQE0vn1T6eqpqNtoMUbV3FQldD0FfgmrdfB5fAJd2xDnDTkAptp/d29klIu4ZzRBVny/7LdV756YgwAd7nue0I5JTz0mjVIiQarDihpfv6vk/pJ/Nuw98zbPTmfSfq/AXMOJDSDvxpl5cKOOAaMNLsUY1tZael6+thQu7qTaWZ3Su/KJkJaJaxsX6nAM7EkfNUBe/7UfbV2LIfuxHJyRVkfk0sYiuSUzZt5n6av8BTjv6kq9tDwEJnJhZFj43JT3eHZC0sC3vGuA21d75KRLVRvherdXXJartbT1fnRHICHQKAhIegaqSM+qUNfaNdTTz36n2jfXlZ4au1n93YmFcxdiKMY/eKj3xX6j2C7j01vPM666MQCaqWTMyAv0gAunlM7OcKvMq71pu2nBplKcf3HZLW8pEtSXYev1FOjQ6WOmr0Xr9hrppAxmXbgIy36bbEMhEtdugzDfKCHQWAlq+5i6NDHgxyOhLO/8rW2ftrvtWk4lq92GZ75QRyAhkBLobgUxUuxvRfL+MQEYgI5ARyAhkBDICGYFuQSAT1W6BMd8kI5ARyAhkBDICGYGMQEaguxHIRLW7Ec33ywhkBDICGYGMQEYgI5AR6BYEMlHtFhjzTTICGYGMQEYgI5ARyAhkBLobgUxUuxvRfL+MQEYgI5ARyAhkBDICGYFuQSAT1W6BMd8kI5ARyAhkBDICGYGMQEaguxHIRLW7Ec33ywhkBDICGYGMQEYgI5AR6BYEIlFN/11ht9wx3yQjkBHICGQEMgIZgYxARiAj0CYC//3vf0Mmqm2CmC/PCGQEMgIZgYxARiAjkBHofgQyUe1+TPMdMwIZgYxARiAjkBHICGQEugGBTFS7AcR8i4xARiAjkBHICGQEMgIZge5HIBPV7sc03zEjkBHICGQEMgIZgYxARqAbEMhEtRtAzLfICGQEMgIZgYxARiAjkBHofgQyUe1+TPMdMwIZgYxARiAjkBHICGQEugGBTFS7AcR8i4xARiAjkBHICGQEMgIZge5HIBPV7sc03zEjkBHICGQEMgIZgYxARqAbEMhEtRtAzLfoDAS+++67MNxww4UXX3wxTDHFFJ2xqG5exc8//xyGGGKI8MQTT4QZZ5zxH3e/7rrrwqabbho++eSTuk/eY489wssvvxyuueaaup9t5wNzzz13WHbZZcP222/fzm0qXrvjjjuGjz/+OFx88cUN3Xv88ccPhxxySFhllVXCDjvsEK+95JJL6l47yyyzhHXWWSdsvvnmdT/bWz9w2223RVy+/fbbiltoRrd6AoOpp546PP/88z1x6159z4xLrz6+vPgGEGiYqH766adhn332CXfccUdw0TzzzBP/PvnkkzfwmOof+fDDD8Oee+4Zbr311jDkkEOGJZZYIuy///6RcJBnn302BgfkY6yxxorBZYMNNui64YUXXhgOPfTQ8N5770VycsIJJ4SZZpqp6+ennnpqOOuss8Ibb7wRA/vuu+8e5p9//rbW/NdffwUBUoD/5ptvwlxzzRXOPvvsMNJII8Vj07ZnAAAgAElEQVT7cvTrrbdeePDBByOpWG655cLRRx8dBhpooIrPtcb1118/DDrooC2tC0Fbe+21w/XXXx9+++23MPDAA8f7CDyLLrpoxXt+8cUXXett6aHddNFll10WVl111bDrrrtGAlGW6aabLupAcV/VHt1pRFUA+fLLLyMZTPps7U8++WS0n//9j3BNo1iPqHrea6+9FuaYY4669+7fieqbb74Zfvnll4aSmt5EVNnByCOPHK688sqw9NJLd+kBH8V3vvXWWwFhT7LddtuFp59+OvrGWkS1rFvt+q26Cvr/fOlee+0VbrzxxvDuu++GSSaZJPrvo446KvpW9nDAAQeEq666Knz99dfRrvx90kknjbefeOKJo+8vioTj3HPPrfj4duJNvbhQfuAtt9wSJphggrjGZkWMqYXLjz/+GPbdd98gufjhhx/CAgssEOOq55Vl2223Dccdd1xNH3vFFVeEE088MTzzzDNh3HHHDQcffHBYcskl46345iOPPDKeAd8zwwwzxJibnoU7WOvdd98d6OYiiywSzjjjjJD/N8xmT70zPu/sTj/99GhXuNZuu+3Wxanq6V09vldthw0R1T///DNMM800kSyOM844YbDBBguvv/56dIac/TDDDNMSggx7yimnjL8YEUeIiE400UThggsuiISYsqsQbbPNNuGRRx4JK6ywQrj55pvDvPPOG//OAFVT5ptvvnDKKadEg+GIhx122GgsCOLll18e13377beH1VZbLRKfySabrKU1u+jwww8PZ555ZrzvmGOOGbbaaqvoJN2fLLXUUpGUnnzyyfHfOX/PRcjLIlDC76uvvgpDDTVU02t65ZVXwsorrxwEUvutR+hOO+20cP7554eHHnqo6Wf1xAWIqkCJXEs2BhhggK7HOKeFF144INX19uWiTiSqn3/+eTyf448/vmtfPUlUmzmj/p2oNoNVbyKq9rXgggvGIkJR79ZYY42YvB522GF/S/YlVHyURL4WUS3i1a7fahT7ddddN/z666/hiCOOCIsttlj0qRtuuGGMAwcddFCMDY8//ngkrv/+978jOePbBFE+OBF2BLaetBtv6sWF8vMRbvFOcaZZqYeLeKOrIvmHwd577x2eeuqpSCSLojMjmUEmq/lY+Kb4ojNy7bXXxngsuRGrYX/SSScFsUVhwbnQM3xhwAEHjN0U2MJHrNt4443DeOONF8lqlt6FAPs78MADY9Iy55xzxjPE3Zw1Xaild/X4Xi0kGiKq77//fnRsslkLJJyGKujDDz8cZptttpbQRkAYKkVnTOS8886LQHA055xzTszcihnxFltsEQmJSqoqJENAGpNMNdVUYcsttwybbLJJ/PXHH3/87edjjz12BFbFs1WZcMIJY4YoMyfahwirypmqqJ/L/pFjcumll8Z9fvDBB3G9SVJ1LP2dsasew5jRpyox5ysLrST33XdfGG200SKZU9mtRegkAvBBqP3eCYKoqoIj6vYt8Uiyyy67xLNXuU77grHzu//++2MFXjV2v/32i7iWiSpHvfXWW4d77703flYFQCIz+OCD95GtIwDsRrXYelOlv0xU6YG93nDDDbEarxp67LHHVqx+JJ2RbNAXiYog7M90u9yeZRuIySCDDBITgpdeeikGfg4HUZVojjHGGEHFRLKw0047BTZWSeiNdQlcdBwZknzBU3VYl0HlC0Fge/Yt8dD6l3C47oEHHogOTdCSbBJ2IfD5mXPSBXBOKXGj457z3HPPxT2yO+t071qtfzqjWkTHhh9++PjnY445JgbScuvfWML3338fcbr66qtjtcfnrYuUiWotG+XA3d9+OHD34tdUrZzXTz/9FJPqpA86IewdwVJdc04cfjvizFUNPY/wg3wsv4eUXHTRRV3YI3jORlKtM+NsdKn4FPuQ7CtOJN165513YjWz7LfEAtUVVTfntNFGG0UM2xExx3qWWWaZkFrcjz76aCQ+iJ7n0cPkN/hdJOjtt9+OlT86LeFtxN+1G29qxYVyYYRN0A/Chxk/qaXnZQzr4SJuOrtU1XzhhRcifipaYlXSCXqNqOqOVosd/C3dRD6TsEH38ZyFFloo2jJ/QhS26DEbcUbs+M4774x+gPDpCl/iZrHT1I6e5Gv7DAL8xuijj/63rjT+wUesvvrqUR+q6R1uVIvv1dpBQ0S1fANVoplnnjk6dmRq6KGH7jaUZH4ckaBoUwhMsU3D4SO2ZpWsQUaNsCaRbQucjEQA2HnnnSNJGGWUUWLLVRB87LHHKpKARjaBSAh6jI1jSsIwtZw8W6DhKJMk54k4OdSicKKyUO0ZBq19Yg8qyognB4Y4vPrqqzHAVxNjBvWIKtIkEGvZdYogEZScs/voo49icpKcqIAj4DKA5EQ5RMRMAFQhgBWyIjkpE9VZZ501Yoswwd7v0047bSRbfUIEBkkXfb7rrrvi78hVmajaCzKtNSvAI2X33HNPTHzSGEdabyKqs88+e6wyaeHCgE7SmSJRRUp1K1TaVaDcH6FlA+xDYGFba621VrQTgXLFFVeMzxUIy4LQSpoEVuRSJ0G1RDJgD8gOAv3ZZ59FQqRy4mwEKGfLPhZffPFIQn1OAizLVsnTqrUfZAnBUQ20bsGMnXmu+6kAWS8ipapUi6iqJtIfOsY++RP2RcfKRNXPtLOszc+QrpVWWim2KwXzIlGtZ6P2SxcFZ4HY6I/7SUQkIapc2r78EqyQGH7Nddr19qlaJZi3KsmvSESQFT7PuVuTM2APkjs6IelGYPhcZ6s7xUYktvQBGXQmRd0q+y3kl3+Cn2t0u/hm5JzutSoIquRFwsWe682o2p/n0xs+A/6SEHjTLfcTPyp1r9qJN+y8VlygU2WROLA/FdV6el6+thlc4CCxYzvIcSqWsDeJJR1gY7///nvF8TS2R39Tx9Ba6Az/q7spSaAzxY4hP6244rmSGueSqtoSZYmPmNXIiFKrupOv63kEdLPZl5hmNLMo1fSu+Jki36u12qaJKsPnhM2DCiQceHeJAKk6K6gLXgKSuU9VkCQMSxCU7QvqHOHyyy/f9XMBV8avQkRURFL7C0lTqk6V0FbWjTAKLJz4iCOO2HUL61YFQVRVRxhxEiRUy0OlAVEqStnhy25VAootOw5akOEwqkk9omocQvA3spEqva3sv7uvMT4hcAjUKkwCqCBiFhoJ8XMkJjlRBMlYRxo3cb6SGRX2IlFV4eMszRBzigQRU1V1Hn1CEA3kDAlH/FRNJR1Fooqo2a+AhRgRa5ZYqWCU56kTUUVK11xzzfh5gQbxRG6KZEJ2K0Cnyo1nCUi6IYmoqlazuyRIjQpWmVwILgiDjNooQ1Hc15kgn4grQcKcmfUjYGyGXRC6aB1s2J+RbuduzwSh83xniDA5W9XUJIKfvfITtYgq3CUq9kOQZc5Uh6MSUaVzRSKEQEg2EMsiUa1no/abZiU9VwAXqCUqBPm1P+es+sSnFGf9rRnJU5VuR1S8PHuzzTaLlQ7+hz2NOuqokWDwsXRIMkT/0ky7BIJvJXyts3UOtYgqgup6GCZB3hDWm266qeVtKIYgnu6L8EjKnEulDhN9oUvWLHGyD75OTKDz9i9Jn3766Su+QNdOvGHnteKCZK4sRaKKNNbS8/K1jeLiHCUh9FeClaqpYiQ9k1wirpKMahXVFFvoLULq74pDOgXiF92SSPAzqm18Ob8skRTHxC6x1/P5EQmypJC/SD6vZQXJF/YVBNgKfaVPfk/dsbSYanpXXGyZ79XaSNNE1fyldpYqoQoe51RsA7WKGmfGoXKsKgoEGCOMMEIko0kQVZVBlQgtK9U4jiwJp6TKq4oiQDEGRJdRCoAMyIxNqy9UmfFBnFSV07iCZyOqZsCQIm1VTjFJIqqCrcBXlDJR1aLS/odFEgaPDHAA1aQeUeUcVHkbecO51TNs5bpEVFV86JPKjfYjR8jx0ze/JycqwDpzZA8xJc5fYlIkqnRUdaiSwEG1tqfFWQtgqh+ctL0xToEjvUyFoKlUlr+pQKXUmRVfHLTeRFQFmNQ6Rh6NP0hCimSCHjHwYkdCdZpNJaKq6soekiBMCHWlZE5CoW0uWCELiI49VttDuifiBgMVK2L/HJlgibzJyFWUkqgCCpz2gyAhdMW3+hFzuLq+FlG1F/ZeJHxs1t4rEVV+Q0UzCewFVklBkajWs1H7pZOJnFir8+J/CFvlf9ybXdsju+Qf/Bvh8yqRm2Z0lr6pItI97XFrQoDZBbKG8EsOPIte8OWSkGRXnuXzEg5EpBZR1dFQrS+LhKT8MlMze0ifpR86aHRepwyxK36LBLKPoKqc049qL65KGCQwXvqQeBWlnXijPV4rLsCnLEWiKoGtpefVMKuHi5Y930qvJYYSPB1QGPC3KlrJ3mqNjaVujOudA/1FTOkyn8RXSXrZEP3yb85Ckidh4FOMCtIlnzXuRackEFl6HwLimBjMFnE3HcFi0bKa3qWdVuJ7tVBomqimm3H+siIZaruZPyNAMP1efEuVI9VSEiiSIGuyNBVLlUaEJhFbn5FxM0TklDNG8ooOH5lUFa7kVBtRF5msCoPZr/RmqesYpXakzBFBUPlLklr/5SqsnzdKVH222puqflaPqFqrqkd6U7ORvfaJz0goECCBnD5xdn4hb+aqkPxEVDlUxEgGL6BKVJAfjrBMVF2rNc059y0pElVr4JQRA/qIzKgA1SKqkrbiWIt7VHrrvxpRRTIQH3aVhP5rUSaiWv56qlpE1T3MVwpQyK2OijY64lqJbKdnlr+eqlGiiuCw40oBXLVOwlGPqBrDQdiS1CKqnsfxJmmWqCYbbYaoJt8naEtenA0ioNLZLlFNYwQIPb2TlCCO7EzCr33rWToSkpdKX0/VKFFFtCTvqZPVEzaXZlQlLbBh20Zp0gtBfL+koJYk3YNF+Rtr2ok3EsVacaHY9SvqYmr9VyOqSc9r7akaLsVr+A1jZzqKyKKRGARWYaURolp+vjEq9qfQUEm09BFWPrgsqXAj9rUz3tITOpbv2TwCRon4lWIXON2lqHepel6N79V6ckNEVRuPs9c2024jHIWsyOIqKWOj201zUSor5a/p4PRSKz/dDyk2lOvZ1iD7L1YatVg5K0RGlVNJuvi1R5Wy5kbXmj5n7EE2n6pdyAbSJLvVyhO0GX+q2imNqwAU25fpXpVa/6ppxTlKwURlUWCpJrWIqgCMqHIQnfaVIEWiav4XjirhAqlfadRCts8p+godxD+JVp/2Q5moIoEyPBm+exL/Rl+cT5+QMlFN4xfIl6BoPan1r/Kf2u2p9a/dWW6pNENUBU+tV5WMJAKDSkqzRNXLOAJTcU6aPkoIJBaCtKCbArLEw8/YSC2iqjPiDCWkqUOhcifISQrZASLOTpJITrTo03hIte9RLVaNXJteeqzW+qdvxbeitZd91Y7EqNz6r2WjzRBVnRN64PwJ/UQoEIl2iWr6miodCFXTVNnkm2DOlrw4xr+TdoiqJBjZZq9JnCl/0+q3wlgnX06vENJEyBQJjFCpiiLZ/l08KM+B0hl+FzFP1VPxS3UZ5mVf2G68qRUXit23hE+59V9Lz4v+qh4u/AwdNGrDBghyKllBVCUwbKCSwLrcTXGObDIVpNxLVyF9Gw9b5BvS2I/EiH2ovupkivGKQ+IY8QxzzwoMCjtZeg8Cii3OUWxJoluG6zhTnKua3olvtfheLRQaIqraR6paMmYzPxal1GseUzAqvlTUDOSIE0W2aZWesgjKnsUgzByp5JgDNWuoWiqTZpAybK0IzsrbtAwFmUVQGaagzGDT1x1xSJxVq4JoqMhy8oKKYGPOJ1UTBGuEVbUZZjIJGXOlwJOCpwDJmO2RQ1BFdujJqLVB09xYpXXXIqqcktZUcRax1b1393VFoureKklmoQQYOlEkqoKMF1NUQxKhhZegQycqvUzlfJAdZJYOIYZGM/qElImqZ9J1Okr30/eoWpfzE+gFEwYvqeHoi98S4fpmiKrkjw4hQYifgK11Tz+bJaqCH5sTsJBnjkNgEpzZQ9qDYCvhkLwaD/A2cS2iyp8YIXAfZMccqcqYdVtjeslEZUl1WUtJlyS172tVVJ27e9Ixs7eqQFpO1Vr/fIXP/J/27gJauqp8A/impKUEQZBOCaVE6ZaSBmmkG0QEBFEklZYu6W5Jpbu7u6SlhbVAQfn7O+u/L4fDzJmZO/d+zOV791rf+m7MnLP3s9943ufdZy5/RlodQUH0dW6qD1PV+WgnRFUbFEG0Luq3owr8VLxqpQ62Y8PiIgz9X7Z7RAJRQ+5yAdwJUa3GLfFOEWM/2AIyY/993ewITqv582cxz7EEsdN18qfCiO+OS0h+CF+jB0R1sDxMaB5a3AiX7pvjA/mTYnTBnKFEfLvNN63yQnW95kbxJ0LASx5tZufl97aDi0LE2WPrEyvNTfdDnqmS5kaKahkXKjQRyd46XsFHFL/Iqec0EF+xWh5mV17j3L2YZrBpBMXv5WbFq66jWBRjaCEgN/FBZJRq7jiTuCx24FR1docv1vG9romqC+QqDjGgdHB2qlB/z3q6pqTRrBWdP5De2T1JASHmcNqh5cCHhHFu1ZkqD4ACgCHwczjtPA5KTaIMd/MwlesiOzZMAkQ4JCZBgKpkCCSclVLhGIJkgDSXPyO0vClIrCRJRRG4JFKBlxqIHFgfFazRQILL5+rya6i4mfwLUtRISbfXRpWoOoNq3lRqhl0mqvCTdDiFRCXBwhbxQniQpPJfpnINQVJRhQCyVWrtsPx4qnxGNeOeP2De3DJRlSAF//zh3FrA9iwrweU964Soeh/7V8ApmBBA95dEdEIafY5qXevf/JBsLUNkVIKHubaxtegy2D/nA/kYcuDrOqLqwUG+6wyfxGb/EGA2nxUvfsTfxACvV7jmvxBVR1StNX88FUVe8SM+iFvIT/kvU/kakbEWvuLebCd/vFKjj6dq5qOdEFVrF+CpnZK+AtW8rVEscLavmyHuUE6dUy23n/PRrUzE3aMTour11bjlWuw4fxwUEmkN3QxFq73OSjci5KPOFHz2qNknzoiJ7k99ZYeKXA/mipeKp/zHVdgbX1CUGN3km1Z5oYoDsgwvsV1Xos7Oq++tw0Wskz89fIsgUp2RCvdq9JR9I6JaxYWf2wd+JI9S6LNCam72WWHo6Ir1WFsmxJRvPm0PxGlfO+7V7BxxN/YS7x1cBHTW7D17ELOIMWVOVWd37fC9ZrNvS1Ed3KXH1QOBQGBYIaCVLYEjLzE+R6CTP6cauH01CAzGnwrVGXMUSKdmqI7AZajuXMy7XQSCqLaLVLwuEBhiCOSHz5zlpMxTmShH2sxaNDGCqA7vNqBDoxuWPxpteMcjrz9wCUvoJQSCqPbSbsRcAoEBRsD5VOdFHRmgpmrTdPNX2QZ4ej1zuVBUe2YrYiKBQCAQCHwBgSCqYRCBQCAQCAQCgUAgEAgEAj2JQBDVntyWmFQgEAgEAoFAIBAIBAKBQBDVsIFAIBAIBAKBQCAQCAQCgZ5EIIhqT25LTCoQCAQCgUAgEAgEAoFAIIhq2EAgEAgEAoFAIBAIBAKBQE8iEES1J7clJhUIBAKBQCAQCAQCgUAgEEQ1bCAQCAQCgUAgEAgEAoFAoCcR6COqPTm7mFQgEAgEAoFAIBAIBAKBwHCNwAj/+zvdnw3XCMTiA4FAIBAIBAKBQCAQCAR6EoEgqj25LTGpQCAQCAQCgUAgEAgEAoEgqmEDgUAgEAgEAoFAIBAIBAI9iUAQ1Z7clphUIBAIBAKBQCAQCAQCgUAQ1bCBQCAQCAQCgUAgEAgEAoGeRCCIak9uS0wqEAgEAoFAIBAIBAKBQCCIathAIBAIBAKBQCAQCAQCgUBPIhBEtSe3JSYVCAQCgUAgEAgEAoFAIBBENWzga4HA+++/n77zne+ku+++O33ve9/7WqypuoiPP/44TTDBBOnmm29Oc8wxx5fWeNlll6Vtt902Pffccy3X//vf/z498cQT6eyzz2752m5esOSSS6bllluumNdAj1133TW99tpr6aSTTmrr0jPPPHPaY4890qqrrpp22WWX4r0nn3xyy/cutNBCae21106bbrppy9cO1Rdcc801ab311kuvvvpqwyV0YluDgcE888yT7rzzzsG49JC+ZuAypLcvJt8mAh0T1aWWWqpIlKuttlpbQb5uHq+88kqROK6++uo05phjJtfebbfd0rjjjlu87aGHHkq/+MUv0mOPPZYmnXTSItmtv/76fZc866yz0sEHH5z+/ve/p5lmmikddNBBac455+z7/Z///Od0yimnpGeffbZI7L/61a/Swgsv3CY0jV/22WefJQnykksuSe+9916ad95509FHH52+9a1vFW/ws8033zzdfvvtabTRRkvLL798+uMf/5hGGmmkhhc0RwniG9/4Rr/mhaBtsskm6fLLL0++HnnkkYvrSDwrrLBCw2u++OKLffPt100H6E3nn39+sZ877LBD2nPPPb901R//+MeFDZTX1ezWvUZUJZC33nor3XvvvX32bO733Xdf+slPfpLefPPNjlFsRVTd7+mnn05wazWGd6IqJvzrX/9qq6gZSkSVH0wxxRTpjDPOSMsuu2yfGZx66qlpiy22SI888kiaaqqp+n6+8847pwceeCDtuOOOtUS1alvdxq1W9plj6V577ZX++te/JjFr+umnT/biD3/4Qxp99NHThx9+mPbdd9+ERH/wwQdpkUUWKfLH1FNPXVz++9//fnrmmWe+cCsFx3HHHdfw9t3km1Z5oXrDq666qtiH6aabrh0ovvAaOaYOl/KL//KXvxRFFozgk2PQfvvtl2699dYiNq277rqJHTQbF154YTr22GPTgw8+WNiW2LH00ksXL//kk0/SoYcemtxH7Jl99tnTUUcd1bcHb7zxRhHbb7zxxvTPf/4zLb744umII45IY4wxRsfrjjd89Qj897//Tfvss0/af//9Cw6UbcrMBtofy6vtiKgifcjip59+2jVR5dhzzz13kSgEl7fffrtQOaaddtokCPr7rrPMMkvaeOON05ZbbpnuuuuutNZaayVOs+CCCxbVtUBMTfG993CYhx9+OI0zzjgFQT388MOTAD355JOna6+9Nv385z8vCOSMM87Y7x0/5JBDCoJ+2mmnpUkmmaQgv++880669NJLi2tSa5DSP/3pT8XPETGkvlEgkCgnnnji9NJLL6Wxxhqr4zlRxJDcueaaq1hvK0J3wgknpDPPPLPAohcGogoX5NpaRhhhhL5pSRpIPkLXal3e1ItE9R//+EdaZZVV0oEHHti3rsEkqp3s6fBOVDvBaigRVeuiYItxZbvbcMMNi+IVwSkX+woqNqqQr1NUy3h1G7faxZ6CjQhJjCuttFISe7faaquiAGe/4vnrr79eiB2Egr333jvdf//9BfE2kKrTTz89LbDAAi1v2W2+aZUXqhNYZpllilxKnOl0tMIlXw95t3YxFA5IhZ8Rc1ZcccVCBFKwbbbZZkUOll+r45577imKA2IMu0J4FTVIrlwt5yL+hx12WFEYHHDAAYWd6WyNOOKI6Wc/+1mRy+3h2GOPnbbZZptiX4488shOlx2v/4oRQETXXHPNNOWUUxa8SnFSJqoD6Y/VpbZNVFXUCJGJnXvuuV0TVc6DmKqOJ5xwwmJeVACVHpKCCDJ6X+ex/fbbF1UZwkW15Aiqtzx++MMfFk630UYbFQ7xn//85wu/V5H/9re/LSrI/o5ZZ501/frXvy6qVEP7kMNSzqiifv/4448X5Ng477zzinU+9dRTxXzzyOpY/l6gE4COOeaYdOKJJ/apxL/5zW+KKrTRoGx/+9vfLpS7JZZYopbQeQ18VEEKgF4YiKr1IvTU8LLRC5yCqPlmogpX6vQtt9xSKPCKAq+Da5WoSmCKCBip3ikA1Bcq97AYCIDE/7vf/S5RT7LSXyWq7IBNXnHFFcUafvSjHxXValaFynPNNnP88ccXyeHJJ59M888/f5HAJ5tssiKJlFv/Ciodh1FGGSVtvfXWhV3++9//Loooid4RAcWW4k+xIHHxn0ZDcUMJYefmZq8UGfD8359hLroMlC9FGv+jkis8tP4XW2yxJOHddtttaZpppikIheLSePnll4vE53f2iR3bp1y42T+KjALUGvmdebp2Xesfwdlpp53SBRdcUKhGCI7577777l9q/fNncQVO7I1a5/X+GVWiWuejfBXxsx6dINeyV+KU/froo4+K5J7tQSdEPLvjjjuKOGKfVl999a5M1J4jJmzNEAeRA3GPwiW+ZOxnmGGGdNNNN6V333236MzYG74oXlgHfxt11FH7bMuaHD+pxi3zhy3VzT5JWtbSzfjBD35QzAdByi1uggXiozMmP5hj9hVqsddR9tj1N7/5zUKYaCfedZtv6vJCVRjhE4iekTuTdXZexbAVLvn1/ErMuO666wrb57OUTXFTNzN38Ygc7EVnszrkZxjyizzYiWNWCoSf/vSnBRnmawbFDWFlg/xmookmKmxHnDIo3GKc/3PntBsbifcOOwTYzKOPPlrEdHt30UUXfSFnD6Q/VlfVNlFlnIIvh2aYA9H6r05GtS8QUSeROypruU2DyKrcqKkSHbUVGciD8ipxchIJAIm58sorC2cRtFWRN9xwQ0MS0M52a7k4goA8S7h5cExkw70lb5uZh5YV1RgpQCrLw3W0aSUPiVmFIjlShx0pQHKRcyqBJNZs2JdWRFXbTyKGX68MRJXqveiiixZn47SXDIkVZuxhgw026COq1AcBD0Yw8f92221XFC1VoiqR2ReECWlFGGebbbaCBA6LIWG6J3tmc/4hV1WiKsAjCsgP20LKfI8Q5mMceb6ZqAr0FAqtQzY/3njjFTZTJqoIhY4FJYQCpQLmS+yEfyCqkpMKmY0h/0ig+yroqoO9K5okOeRSEYBAuL81IKIINBXZftg3hFJQs7f8w5EHJJKpw2EAAA4vSURBVI2qj7TpqthPZMl6FCzIjcRu3opABMB9Xc/c+Dy7WGeddWqJKmJondbNd5Ba/gXn6hlVsQZ5Q5ARH/HF9RUPMCwT1VY+ar1s0V4I5mussUZxPb7M16mcChf/+D3Cal/mm2++Yn7Wz5+tu78jxxXkHomjbol95rTyyisXBaDiDjbsDbFTiFBaxVU+IvayB/sM+7JtVeOWdfAt+LkPm1cwSVy+7+9A2BWk1Dckq+6MqsKEnbARhItyiEyZB6zZFntFvBp1r7rJN/y8Li+wt+pQOIh3YlorO6++tx1c7IHXwcOeZqIqDlGn7VkmqvbeHGFU7mq5L79UhOSOoZ+xGfEXUdHVdP1yx9CaFGz8X1HDdrKqrVAWr6iu7RxR6q/txPsGF4FGRLV8x279sTr7toiqxEmREmwlLG2igSaq1B6EBcF0fQmJkVNY86DYSIL5vJJAWD6HKVD5nQRsqCiz4oqkCXhZCe3PNkqu5uZMbFlVEEThgahSR3K17B4Cpva+qlQwL49qwHcNAazcskO4kAtrazZaEVUkWUKkdmSltz/rH+j3ULsQZ4lasJNAJRGBE7FQFDnzRO2i1CFIVBL/8v4KrjAvE1WKi2CpAqQGGRQLwViAHhYjE1U2TQH55S9/WaiVZaKKqCmiJCwEwqBsaa1cfPHFXzpPnYkqUopgGsgG8sUGymSCb0jQWSVxL+QHkcpEVfKRyPKgPFGwquRCctH1QOYQufJwXeoVkkpdMZBex4PYrvshogoSgy2aBz99/vnnC5+373AwkEMtSB0X/uocepmgsAt2LE7UKarmwt8kWgNZdh6QetSIqFKdyvexH/CQlMtEtZWPWi/yjbwYVKfrr7++KFQM/4tBbJP6JKY4X5+H5C32UaW7Gcg58kBgYAsw40+KGwq6OOYe/Ir/5TPt5kMRNdirY1SIax1RpdDz2TKZEbfh6V79HfweVvaGMk2lzSSofE2FFTwVFYogBNVxKgWPIsyeWL84wRcbPUDXTb5RhNXlBcVcdZSJKvzq7Lz63la48D1Ch6KHkOMhwkxUiS0wkEd1EuDkdfafP2Y/zPfMuYVf8gPfEz3sBwLLtuApzshzxCR5V6Enj8nPcq99EUf4gzgiXuSY11/7iPd9dQjUEdWB8MfqyloSVeeRKDiM23nQTNYGkqj+7W9/K5QxgdVZKkPgUHlxhDwQVU7PoSQ/bSnVYR7IHMeTvLVDOYfXUNa8lwN5yrm/D1Rp3yNOL7zwQt9xBfdGVJ3FQYoEfaQ0j0xUOXVVJakSVa15icW/PBwHQAY4drPRiqhSz8y5nSech6XpZ6KqHYWMU26QFEFUklEcSQC59U8dR3iQPT8z7L/CpExUqYnlc3jlNVG7EcHBHoiqBEbFyUoZUiih5oepKL0Kv+onFUgsVMrqGjJRVTjm1jF7phJJxGUyQc1A2MsdCfjyqUxUFYfnnHNOHxSuiVA3KuYooXxRQYEs8AP23GwN+aJIAtWFfxvWL5DZI6qPZImo5uFrBNN6EFWJtfxUP9/m095fR1StRawoEz7kQFu7EVFVfEqyeUjGVAFFQZmotvJR60X0MzkxV2qz7oHBV51PtC5+jUAQAKifErkB50bkphOb1W1Q9IiBbNCcxFQ2JZazD36AhIpdiIqjAdS9PPLzCIr9OqLKZnI3pDxHtl0+utXJ/MuvNSd2Z08VKIqP8qdIiLd8iJ85skAocB6yOhBeBQzVn1JbHt3kG527urwgnlVHmagi03V23gy3ZriwcUWqeGmUiarv4ZNb+s72wlK8URw2esiJz9lfZ38d/8uElc2IScinowF8CC/wM4WSIk8+FgcRWQTafXRL2BRfiTE0EagjqgPhj1VUWhJVxEAyUV2rtihYEogkJeBrDXUzOAFHZ7zlp1QlIQFFoshDImHgHA3ZVC1mYus1grsApZpXUarqygHfaykESGx/hkqWeoQoIcp5IMKcUuUoASC0eeTWf1WF9ft2iarXNntS1e9aEVVBVFsuP6nZn7UPxnskb4oq4qXKFuwQL0EOiUHyM1FFYJA/pJuq993vfrc4HiIQVokqMsouYf9VjTJRNQdEgSrJHgVoSaGOqCraysdaXKPRU//NiKrkg/hQW/Ng/wJMJqrVj6eqI6qu4XwlW6OcUSZdW9JqRLbzPasfT9UuUeUbSFyjBM6/7XErokopQs7zqCOqzswhjHl0SlSzj3ZCVHPsE0+psIoIhMxxgW6Jqrasc/q5MEOW7RM/U7SL6e7Ff8Yff/yCqFYfpmqXqCJa+YGdwfK3fEZVYUVw4NvVNjX/cNSB3TRS67LtwaKsYptzN/mGQFKXFxp9+ko7RDXbeR2mVVwo9s6E2+N8NrZKVKvXQ2jld2JGOwPx9FoKfaPh/rgBH6qOOuGmnXvHa3oDgVat/5yv+uuP1VW2JKqIQVnVLF9A9dWfj9nJ18jnorTGqh/ToWWEwFJO8hB4natRMSIiVLSy0kgp4ESIDJXTuZjyxx41qpo73XYVpXlktQvZQFolOq08JIs6klU7LR2tnUbnqxq1/rXmyucoJRMKjMTSbNQRVfNCVLW8e+0jQcpEFSERWLWeBVlqa1bv7bPv2SIVMA9tY22+KlGlJCJQiBhCa3jgJxcane55f15fJar5+IXkI7Hxm9z6Z8O53Z5b/8hgfuAo378ToqowYXOOEORhTs5CdkpUnRnWxSifk+ZXSBCiLElTXHJCRgT8jo/UEVWFqD2ETX6gknLnffwKgXN93Yg8FCcemoFPq9a/YtXrjfzQY7PWP5vLT4t7vU+c4DfUomrrv85HOyGqVGZ2mYtxdi6wO4PbLVHNH1NF0VXcZ2VTwYdIiJ8KQ8qb0Q1RFd/g6txiHuKN9nA+ptOpD5mnuSvQEdJMyPi04xFsANYKXesxKHbiLqIKR/MitGT1VJ6hLjdSDrvNN3V5Idt2GYNq67/Ozsvva4ULv28mHvErnRE5SVcnPzOBUIqN5Y5CeR/5ZO5MwFhXwfdUe7kOac3HfnyNGMtJBBw5njgEH0OsdixGbCfsxBiaCFSJKn8XywfKH6uotCSq1TcMVOtfZSWRSNoUhOqQlD1Qg1xyCIbvjJLqDyHVRhWotAUlEuqOhI/YIrPOx/idpAzA/HFHqkDf93cIfIKnlhpHp6B6MCGfi3V2EGG1YRKxdpr2faPEk5OnBMmZrZGKIXEJBq5ZfpK22ZzriCqVSMAvn0Xs79oH+n1louragh9FQGuPTZSJqp/7GRKEfFLFKetIKZto9DCV/UH6kVktJ8RQ8hoWo0pU3VMSYaM+5iMXeOZl/5AJCU0QF/z9rPwpEd7fCVGlSCvW3E87jpIGC2SyU6KKSCK41CzkGebaxfwT8c5rcA/74AE2xwMQyTqi6rw0JZG6BRv+wE9gZ475IROYUPsQVspPbt/XEVVkRVKmWiItClh20qz1L1aYt3iDtDp+g9jww+rDVHU+2glRVXghiJI59ZtSiIiJT/mMaze2qsCFofmX7R6RULQq6HMB3AlRrcYtfuW4BuItViMzru1rttefwY4IAB4IQqTEfnGXvYnvjjHByQOHiiYxwZ6L7wgzcuvMKjtUrEikFHZdg/zcAltw5Mjcu803rfJCFQNzMx9dLoWgDmUzOy+/tx1cqveqKqr8C6GHpU/wUYwpaPOny5RxoUIjnPZWLjNHbXyFguc0KPc6NfxHAcc/PWfAngw2zb79Honl33yL7ccYugg0UlS79cc6NL4youpcavXBjDzR/IH0VBlJwf8CkYRYDnxImOSrfcUZkUP/GwI/h3OmyVOtAoE2YDcPU7muoMxZKXwIhwSOJCOahkDiTBISxWGtUSCttqnyWrXNODEVhVLrWg79OyqAkLuXezQajjYIFNXh/Zn8C6DUAkm310aVqCISgh7VwINpZaIKP+08AVCikmBh60wr20CSyn+ZiiInSHqICgGUrKm1w/LjqfIZ1Yy7896UBXPLRFWCtMdUC/aEuEkgWQku71knRNX72L8jNe4l0bs/m1TENfoc1brWv/khvQoF6rcED3NtY6qg/bB/Hs7hY8iBr+uIKlWJ7zrj6FwTH6LMwCOr/x7MUqyJAV6vmMl/IaqOqFpr/niq/Fmc/EJhiWSX/zJVJjJa73yFEiih5o9XavTxVM18tBOiau0UPl0PSV+Bat5inlgAl26GfYadorrcfnZte5eJuHt0QlS9vhq3qPf2jSAgBruf+3QzFKfuk49SIULUU+KGY2jsWoGDCDmS5lkKxUZ+mhzp5/OuA1/n2dlMftpdvIBR/vzQbvJNq7xQxQHRhhexhppaZ+fV97bCpfr6KlFVCPPR/KwHeysfM6riYn72gR/JozqsWSF1L8eUFAn8x3p0QrKKLKbJRWxNYcq/nY9t9gdwurGXeO/gIqDAk1OrQ0zGvbr1x7rZd0xUBxeKuHogEAgMFgIKHkcMGgWbwbrnULhuJ39OdSis5+s4x8H4U6GOqzi24pjHUB2By1DduZh3JwgEUe0ErXhtIDBEEMgPnznLSZmnvGu5UZ8oTzE+RyCI6vBpDTo0OljVj2QaPtH4fNWBy/BuAb23/iCqvbcnMaNAYEAQ0PLVCnVkwINBjr5081fZBmRSPXiRIKo9uCkxpUAgEAgE/h+BIKphCoFAIBAIBAKBQCAQCAQCPYlAENWe3JaYVCAQCAQCgUAgEAgEAoFAENWwgUAgEAgEAoFAIBAIBAKBnkQgiGpPbktMKhAIBAKBQCAQCAQCgUAgiGrYQCAQCAQCgUAgEAgEAoFATyIQRLUntyUmFQgEAoFAIBAIBAKBQCAQRDVsIBAIBAKBQCAQCAQCgUCgJxEIotqT2xKTCgQCgUAgEAgEAoFAIBD4PxZjxbHVtqdqAAAAAElFTkSuQmCC;imageBorder=default;" vertex="1" parent="1">
          <mxGeometry x="1438" y="323" width="672" height="180.32" as="geometry" />
        </mxCell>
        <mxCell id="vmAAlmW888rtJV2ebhX8-2" value="Combined Demographic Dataset" style="rounded=0;whiteSpace=wrap;html=1;flipH=0;flipV=1;direction=west;horizontal=0;fontStyle=1;fontSize=13;" vertex="1" parent="1">
          <mxGeometry x="1398" y="323" width="40" height="180" as="geometry" />
        </mxCell>
      </root>
    </mxGraphModel>
  </diagram>
</mxfile>
